<svg xmlns="http://www.w3.org/2000/svg" viewBox="0 0 1920 1324" preserveAspectRatio="xMidYMid slice">
  <defs>
    <style>
      .a { fill: none; }
      .y .b { fill: #052460; }
      .y .c { fill: #052562; }
      .y .d { fill: #052665; }
      .y .e { fill: #06286b; }
      .y .f { fill: #062c78; }
      .z .b { fill: #ffffff; }
      .z .c { fill: #fcfdff; }
      .z .d { fill: #fafbfc; }
      .z .e { fill: #f7f9fc; }
      .z .f { fill: #f5f7fa; }
      g { fill: none; transition: fill 500ms; }
    </style>
  </defs>
  <title>Hatchery Pattern Fills</title>
  <rect class="a" width="1920" height="1324"/>
  <g>
    <polygon points="427.908 1065.746 342.084 1245.744 360.789 1286.157 465.232 1065.746 427.908 1065.746"/>
    <polygon points="340.762 1158.061 356.25 1125.699 322.37 1125.699 293.23 1065.774 255.91 1066.059 300.647 1158.061 340.762 1158.061"/>
  </g>
  <g>
    <polygon points="260.42 1222.714 244.932 1255.077 278.812 1255.077 307.952 1315.003 345.272 1314.716 300.535 1222.714 260.42 1222.714"/>
    <polygon points="135.95 1315.029 173.274 1315.029 259.098 1135.031 240.393 1094.618 135.95 1315.029"/>
  </g>
  <g>
    <polygon points="100.841 1158.061 116.328 1125.699 82.449 1125.699 53.309 1065.774 15.989 1066.059 60.726 1158.061 100.841 1158.061"/>
    <polygon points="187.986 1065.746 102.162 1245.744 120.868 1286.157 225.311 1065.746 187.986 1065.746"/>
  </g>
  <g>
    <polygon points="615.791 520.594 653.118 520.594 738.941 340.596 720.236 300.183 615.791 520.594"/>
    <polygon points="740.263 428.28 724.775 460.641 758.654 460.641 787.795 520.567 825.114 520.281 780.378 428.28 740.263 428.28"/>
  </g>
  <g>
    <polygon points="533.15 271.338 495.831 271.625 540.568 363.626 580.682 363.626 596.171 331.263 562.29 331.263 533.15 271.338"/>
    <polygon points="600.709 491.722 705.153 271.311 667.828 271.311 582.005 451.31 600.709 491.722"/>
  </g>
  <g>
    <polygon points="375.871 520.594 413.195 520.594 499.019 340.596 480.314 300.183 375.871 520.594"/>
    <polygon points="500.341 428.28 484.853 460.641 518.734 460.641 547.873 520.567 585.192 520.281 540.456 428.28 500.341 428.28"/>
  </g>
  <g>
    <polygon points="375.871 1315.029 413.195 1315.029 499.019 1135.031 480.314 1094.618 375.871 1315.029"/>
    <polygon points="500.341 1222.714 484.853 1255.077 518.734 1255.077 547.873 1315.003 585.192 1314.716 540.456 1222.714 500.341 1222.714"/>
  </g>
  <g>
    <polygon points="100.841 629.673 116.328 597.31 82.449 597.31 53.309 537.385 15.989 537.672 60.726 629.673 100.841 629.673"/>
    <polygon points="225.311 537.359 187.986 537.359 102.162 717.357 120.868 757.769 225.311 537.359"/>
  </g>
  <g>
    <polygon points="495.831 537.672 540.568 629.673 580.682 629.673 596.171 597.31 562.29 597.31 533.15 537.385 495.831 537.672"/>
    <polygon points="705.153 537.359 667.828 537.359 582.005 717.357 600.709 757.769 705.153 537.359"/>
  </g>
  <g>
    <polygon points="615.791 1315.029 653.118 1315.029 738.941 1135.031 720.236 1094.618 615.791 1315.029"/>
    <polygon points="740.263 1222.714 724.775 1255.077 758.654 1255.077 787.795 1315.003 825.114 1314.716 780.378 1222.714 740.263 1222.714"/>
  </g>
  <g>
    <polygon points="240.393 828.571 135.95 1048.982 173.274 1048.982 259.098 868.984 240.393 828.571"/>
    <polygon points="307.952 1048.955 345.272 1048.669 300.535 956.667 260.42 956.667 244.932 989.03 278.812 989.03 307.952 1048.955"/>
  </g>
  <g>
    <polygon points="293.23 271.338 255.91 271.625 300.647 363.626 340.762 363.626 356.25 331.263 322.37 331.263 293.23 271.338"/>
    <polygon points="360.789 491.722 465.232 271.311 427.908 271.311 342.084 451.31 360.789 491.722"/>
  </g>
  <g>
    <polygon points="68.03 1048.955 105.351 1048.669 60.614 956.667 20.499 956.667 5.011 989.03 38.891 989.03 68.03 1048.955"/>
    <polygon points="19.177 868.984 0.472 828.571 0 829.567 0 909.204 19.177 868.984"/>
  </g>
  <g>
    <polygon points="820.602 101.284 836.09 68.923 802.211 68.923 773.072 8.997 735.753 9.284 780.489 101.284 820.602 101.284"/>
    <polygon points="945.074 8.971 907.748 8.971 821.925 188.969 840.63 229.382 945.074 8.971"/>
  </g>
  <g>
    <polygon points="260.42 165.939 244.932 198.301 278.812 198.301 307.952 258.226 345.272 257.941 300.535 165.939 260.42 165.939"/>
    <polygon points="173.274 258.254 259.098 78.254 240.393 37.843 135.95 258.254 173.274 258.254"/>
  </g>
  <g>
    <polygon points="802.211 331.263 773.072 271.338 735.753 271.625 780.489 363.626 820.602 363.626 836.09 331.263 802.211 331.263"/>
    <polygon points="945.074 271.311 907.748 271.311 821.925 451.31 840.63 491.722 945.074 271.311"/>
  </g>
  <g>
    <polygon points="260.42 428.28 244.932 460.641 278.812 460.641 307.952 520.567 345.272 520.281 300.535 428.28 260.42 428.28"/>
    <polygon points="135.95 520.594 173.274 520.594 259.098 340.596 240.393 300.183 135.95 520.594"/>
  </g>
  <g>
    <polygon points="720.236 566.231 615.791 786.641 653.118 786.641 738.941 606.643 720.236 566.231"/>
    <polygon points="740.263 694.327 724.775 726.688 758.654 726.688 787.795 786.614 825.114 786.328 780.378 694.327 740.263 694.327"/>
  </g>
  <g>
    <polygon points="68.03 786.614 105.351 786.328 60.614 694.327 20.499 694.327 5.011 726.688 38.891 726.688 68.03 786.614"/>
    <polygon points="19.177 606.643 0.472 566.231 0 567.227 0 646.862 19.177 606.643"/>
  </g>
  <g>
    <polygon points="705.153 8.971 667.828 8.971 582.005 188.969 600.709 229.382 705.153 8.971"/>
    <polygon points="580.682 101.284 596.169 68.923 562.29 68.923 533.15 8.997 495.831 9.284 540.568 101.284 580.682 101.284"/>
  </g>
  <g>
    <polygon points="480.314 828.571 375.871 1048.982 413.195 1048.982 499.019 868.984 480.314 828.571"/>
    <polygon points="547.873 1048.955 585.192 1048.669 540.456 956.667 500.341 956.667 484.853 989.03 518.734 989.03 547.873 1048.955"/>
  </g>
  <g>
    <polygon points="340.762 101.284 356.25 68.923 322.37 68.923 293.23 8.997 255.91 9.284 300.647 101.284 340.762 101.284"/>
    <polygon points="465.232 8.971 427.908 8.971 342.084 188.969 360.789 229.382 465.232 8.971"/>
  </g>
  <g>
    <polygon points="945.074 799.699 907.748 799.699 821.925 979.697 840.63 1020.11 945.074 799.699"/>
    <polygon points="735.753 800.012 780.489 892.014 820.602 892.014 836.09 859.652 802.211 859.652 773.072 799.727 735.753 800.012"/>
  </g>
  <g>
    <polygon points="20.499 1222.714 5.011 1255.077 38.891 1255.077 68.03 1315.003 105.351 1314.716 60.614 1222.714 20.499 1222.714"/>
    <polygon points="19.177 1135.031 0.472 1094.618 0 1095.614 0 1175.251 19.177 1135.031"/>
  </g>
  <g>
    <polygon points="740.263 165.939 724.775 198.301 758.654 198.301 787.795 258.226 825.114 257.941 780.378 165.939 740.263 165.939"/>
    <polygon points="738.941 78.254 720.236 37.843 615.791 258.254 653.118 258.254 738.941 78.254"/>
  </g>
  <g>
    <polygon points="500.341 165.939 484.853 198.301 518.734 198.301 547.873 258.226 585.192 257.941 540.456 165.939 500.341 165.939"/>
    <polygon points="413.195 258.254 499.019 78.254 480.314 37.843 375.871 258.254 413.195 258.254"/>
  </g>
  <g>
    <polygon points="19.177 78.254 0.472 37.843 0 38.838 0 118.474 19.177 78.254"/>
    <polygon points="68.03 258.226 105.351 257.941 60.614 165.939 20.499 165.939 5.011 198.301 38.891 198.301 68.03 258.226"/>
  </g>
  <g>
    <polygon points="255.91 537.672 300.647 629.673 340.762 629.673 356.25 597.31 322.37 597.31 293.23 537.385 255.91 537.672"/>
    <polygon points="465.232 537.359 427.908 537.359 342.084 717.357 360.789 757.769 465.232 537.359"/>
  </g>
  <g>
    <polygon points="100.841 892.014 116.328 859.652 82.449 859.652 53.309 799.727 15.989 800.012 60.726 892.014 100.841 892.014"/>
    <polygon points="225.311 799.699 187.986 799.699 102.162 979.697 120.868 1020.11 225.311 799.699"/>
  </g>
  <g>
    <polygon points="582.005 1245.744 600.709 1286.157 705.153 1065.746 667.828 1065.746 582.005 1245.744"/>
    <polygon points="580.682 1158.061 596.171 1125.699 562.29 1125.699 533.15 1065.774 495.831 1066.059 540.568 1158.061 580.682 1158.061"/>
  </g>
  <g>
    <polygon points="19.177 340.596 0.472 300.183 0 301.178 0 380.815 19.177 340.596"/>
    <polygon points="68.03 520.567 105.351 520.281 60.614 428.28 20.499 428.28 5.011 460.641 38.891 460.641 68.03 520.567"/>
  </g>
  <g>
    <polygon points="547.873 786.614 585.192 786.328 540.456 694.327 500.341 694.327 484.853 726.688 518.734 726.688 547.873 786.614"/>
    <polygon points="480.314 566.231 375.871 786.641 413.195 786.641 499.019 606.643 480.314 566.231"/>
  </g>
  <g>
    <polygon points="787.795 1048.955 825.114 1048.669 780.378 956.667 740.263 956.667 724.775 989.03 758.654 989.03 787.795 1048.955"/>
    <polygon points="720.236 828.571 615.791 1048.982 653.118 1048.982 738.941 868.984 720.236 828.571"/>
  </g>
  <g>
    <polygon points="580.682 892.014 596.171 859.652 562.29 859.652 533.15 799.727 495.831 800.012 540.568 892.014 580.682 892.014"/>
    <polygon points="705.153 799.699 667.828 799.699 582.005 979.697 600.709 1020.11 705.153 799.699"/>
  </g>
  <g>
    <polygon points="802.211 597.31 773.072 537.385 735.753 537.672 780.489 629.673 820.602 629.673 836.09 597.31 802.211 597.31"/>
    <polygon points="945.074 537.359 907.748 537.359 821.925 717.357 840.63 757.769 945.074 537.359"/>
  </g>
  <g>
    <polygon points="225.311 8.971 187.986 8.971 102.162 188.969 120.868 229.382 225.311 8.971"/>
    <polygon points="100.841 101.284 116.328 68.923 82.449 68.923 53.309 8.997 15.989 9.284 60.726 101.284 100.841 101.284"/>
  </g>
  <g>
    <polygon points="135.95 786.641 173.274 786.641 259.098 606.643 240.393 566.231 135.95 786.641"/>
    <polygon points="307.952 786.614 345.272 786.328 300.535 694.327 260.42 694.327 244.932 726.688 278.812 726.688 307.952 786.614"/>
  </g>
  <g>
    <polygon points="100.841 363.626 116.328 331.263 82.449 331.263 53.309 271.338 15.989 271.625 60.726 363.626 100.841 363.626"/>
    <polygon points="120.868 491.722 225.311 271.311 187.986 271.311 102.162 451.31 120.868 491.722"/>
  </g>
  <g>
    <polygon points="465.232 799.699 427.908 799.699 342.084 979.697 360.789 1020.11 465.232 799.699"/>
    <polygon points="340.762 892.014 356.25 859.652 322.37 859.652 293.23 799.727 255.91 800.012 300.647 892.014 340.762 892.014"/>
  </g>
  <g>
    <polygon points="821.925 1245.744 840.63 1286.157 945.074 1065.746 907.748 1065.746 821.925 1245.744"/>
    <polygon points="820.602 1158.061 836.09 1125.699 802.211 1125.699 773.072 1065.774 735.753 1066.059 780.489 1158.061 820.602 1158.061"/>
  </g>
  <g>
    <polygon points="1387.619 1065.746 1301.795 1245.744 1320.5 1286.157 1424.943 1065.746 1387.619 1065.746"/>
    <polygon points="1300.473 1158.061 1315.961 1125.699 1282.081 1125.699 1252.941 1065.774 1215.621 1066.059 1260.358 1158.061 1300.473 1158.061"/>
  </g>
  <g>
    <polygon points="1220.131 1222.714 1204.643 1255.077 1238.523 1255.077 1267.663 1315.003 1304.983 1314.716 1260.246 1222.714 1220.131 1222.714"/>
    <polygon points="1095.661 1315.029 1132.985 1315.029 1218.809 1135.031 1200.104 1094.618 1095.661 1315.029"/>
  </g>
  <g>
    <polygon points="1060.552 1158.061 1076.039 1125.699 1042.16 1125.699 1013.02 1065.774 975.7 1066.059 1020.437 1158.061 1060.552 1158.061"/>
    <polygon points="1147.697 1065.746 1061.873 1245.744 1080.579 1286.157 1185.022 1065.746 1147.697 1065.746"/>
  </g>
  <g>
    <polygon points="1919.867 1094.618 1815.424 1315.029 1852.748 1315.029 1920 1173.982 1920 1094.904 1919.867 1094.618"/>
  </g>
  <g>
    <polygon points="1919.867 828.571 1815.424 1048.982 1852.748 1048.982 1920 907.935 1920 828.857 1919.867 828.571"/>
  </g>
  <g>
    <polygon points="1575.502 520.594 1612.829 520.594 1698.652 340.596 1679.947 300.183 1575.502 520.594"/>
    <polygon points="1699.974 428.28 1684.486 460.641 1718.365 460.641 1747.506 520.567 1784.825 520.281 1740.089 428.28 1699.974 428.28"/>
  </g>
  <g>
    <polygon points="1919.867 566.231 1815.424 786.641 1852.748 786.641 1920 645.593 1920 566.517 1919.867 566.231"/>
  </g>
  <g>
    <polygon points="1492.861 271.338 1455.542 271.625 1500.279 363.626 1540.393 363.626 1555.882 331.263 1522.001 331.263 1492.861 271.338"/>
    <polygon points="1560.42 491.722 1664.864 271.311 1627.539 271.311 1541.716 451.31 1560.42 491.722"/>
  </g>
  <g>
    <polygon points="1335.582 520.594 1372.906 520.594 1458.73 340.596 1440.025 300.183 1335.582 520.594"/>
    <polygon points="1460.052 428.28 1444.564 460.641 1478.445 460.641 1507.584 520.567 1544.903 520.281 1500.167 428.28 1460.052 428.28"/>
  </g>
  <g>
    <polygon points="1335.582 1315.029 1372.906 1315.029 1458.73 1135.031 1440.025 1094.618 1335.582 1315.029"/>
    <polygon points="1460.052 1222.714 1444.564 1255.077 1478.445 1255.077 1507.584 1315.003 1544.903 1314.716 1500.167 1222.714 1460.052 1222.714"/>
  </g>
  <g>
    <polygon points="1060.552 629.673 1076.039 597.31 1042.16 597.31 1013.02 537.385 975.7 537.672 1020.437 629.673 1060.552 629.673"/>
    <polygon points="1185.022 537.359 1147.697 537.359 1061.873 717.357 1080.579 757.769 1185.022 537.359"/>
  </g>
  <g>
    <polygon points="1455.542 537.672 1500.279 629.673 1540.393 629.673 1555.882 597.31 1522.001 597.31 1492.861 537.385 1455.542 537.672"/>
    <polygon points="1664.864 537.359 1627.539 537.359 1541.716 717.357 1560.42 757.769 1664.864 537.359"/>
  </g>
  <g>
    <polygon points="1575.502 1315.029 1612.829 1315.029 1698.652 1135.031 1679.947 1094.618 1575.502 1315.029"/>
    <polygon points="1699.974 1222.714 1684.486 1255.077 1718.365 1255.077 1747.506 1315.003 1784.825 1314.716 1740.089 1222.714 1699.974 1222.714"/>
  </g>
  <g>
    <polygon points="1200.104 828.571 1095.661 1048.982 1132.985 1048.982 1218.809 868.984 1200.104 828.571"/>
    <polygon points="1267.663 1048.955 1304.983 1048.669 1260.246 956.667 1220.131 956.667 1204.643 989.03 1238.523 989.03 1267.663 1048.955"/>
  </g>
  <g>
    <polygon points="1252.941 271.338 1215.621 271.625 1260.358 363.626 1300.473 363.626 1315.961 331.263 1282.081 331.263 1252.941 271.338"/>
    <polygon points="1320.5 491.722 1424.943 271.311 1387.619 271.311 1301.795 451.31 1320.5 491.722"/>
  </g>
  <g>
    <polygon points="1027.741 1048.955 1065.062 1048.669 1020.325 956.667 980.21 956.667 964.722 989.03 998.602 989.03 1027.741 1048.955"/>
    <polygon points="978.888 868.984 960.183 828.571 960.17 828.599 960.156 828.571 855.713 1048.982 893.037 1048.982 959.711 909.147 959.711 909.204 978.888 868.984"/>
  </g>
  <g>
    <polygon points="1780.313 101.284 1795.801 68.923 1761.922 68.923 1732.783 8.997 1695.464 9.284 1740.2 101.284 1780.313 101.284"/>
    <polygon points="1904.785 8.971 1867.459 8.971 1781.636 188.969 1800.341 229.382 1904.785 8.971"/>
  </g>
  <g>
    <polygon points="1220.131 165.939 1204.643 198.301 1238.523 198.301 1267.663 258.226 1304.983 257.941 1260.246 165.939 1220.131 165.939"/>
    <polygon points="1132.985 258.254 1218.809 78.254 1200.104 37.843 1095.661 258.254 1132.985 258.254"/>
  </g>
  <g>
    <polygon points="1761.922 331.263 1732.783 271.338 1695.464 271.625 1740.2 363.626 1780.313 363.626 1795.801 331.263 1761.922 331.263"/>
    <polygon points="1904.785 271.311 1867.459 271.311 1781.636 451.31 1800.341 491.722 1904.785 271.311"/>
  </g>
  <g>
    <polygon points="1220.131 428.28 1204.643 460.641 1238.523 460.641 1267.663 520.567 1304.983 520.281 1260.246 428.28 1220.131 428.28"/>
    <polygon points="1095.661 520.594 1132.985 520.594 1218.809 340.596 1200.104 300.183 1095.661 520.594"/>
  </g>
  <g>
    <polygon points="1679.947 566.231 1575.502 786.641 1612.829 786.641 1698.652 606.643 1679.947 566.231"/>
    <polygon points="1699.974 694.327 1684.486 726.688 1718.365 726.688 1747.506 786.614 1784.825 786.328 1740.089 694.327 1699.974 694.327"/>
  </g>
  <g>
    <polygon points="1027.741 786.614 1065.062 786.328 1020.325 694.327 980.21 694.327 964.722 726.688 998.602 726.688 1027.741 786.614"/>
    <polygon points="978.888 606.643 960.183 566.231 960.17 566.259 960.156 566.231 855.713 786.641 893.037 786.641 959.711 646.805 959.711 646.862 978.888 606.643"/>
  </g>
  <g>
    <polygon points="1664.864 8.971 1627.539 8.971 1541.716 188.969 1560.42 229.382 1664.864 8.971"/>
    <polygon points="1540.393 101.284 1555.88 68.923 1522.001 68.923 1492.861 8.997 1455.542 9.284 1500.279 101.284 1540.393 101.284"/>
  </g>
  <g>
    <polygon points="1440.025 828.571 1335.582 1048.982 1372.906 1048.982 1458.73 868.984 1440.025 828.571"/>
    <polygon points="1507.584 1048.955 1544.903 1048.669 1500.167 956.667 1460.052 956.667 1444.564 989.03 1478.445 989.03 1507.584 1048.955"/>
  </g>
  <g>
    <polygon points="1300.473 101.284 1315.961 68.923 1282.081 68.923 1252.941 8.997 1215.621 9.284 1260.358 101.284 1300.473 101.284"/>
    <polygon points="1424.943 8.971 1387.619 8.971 1301.795 188.969 1320.5 229.382 1424.943 8.971"/>
  </g>
  <g>
    <polygon points="1904.785 799.699 1867.459 799.699 1781.636 979.697 1800.341 1020.11 1904.785 799.699"/>
    <polygon points="1695.464 800.012 1740.2 892.014 1780.313 892.014 1795.801 859.652 1761.922 859.652 1732.783 799.727 1695.464 800.012"/>
  </g>
  <g>
    <polygon points="980.21 1222.714 964.722 1255.077 998.602 1255.077 1027.741 1315.003 1065.062 1314.716 1020.325 1222.714 980.21 1222.714"/>
    <polygon points="978.888 1135.031 960.183 1094.618 960.17 1094.646 960.156 1094.618 855.713 1315.029 893.037 1315.029 959.711 1175.194 959.711 1175.251 978.888 1135.031"/>
  </g>
  <g>
    <polygon points="1699.974 165.939 1684.486 198.301 1718.365 198.301 1747.506 258.226 1784.825 257.941 1740.089 165.939 1699.974 165.939"/>
    <polygon points="1698.652 78.254 1679.947 37.843 1575.502 258.254 1612.829 258.254 1698.652 78.254"/>
  </g>
  <g>
    <polygon points="1460.052 165.939 1444.564 198.301 1478.445 198.301 1507.584 258.226 1544.903 257.941 1500.167 165.939 1460.052 165.939"/>
    <polygon points="1372.906 258.254 1458.73 78.254 1440.025 37.843 1335.582 258.254 1372.906 258.254"/>
  </g>
  <g>
    <polygon points="978.888 78.255 960.183 37.843 960.17 37.871 960.156 37.843 855.713 258.254 893.037 258.254 959.711 118.417 959.711 118.474 978.888 78.255"/>
    <polygon points="1027.741 258.226 1065.062 257.941 1020.325 165.939 980.21 165.939 964.722 198.301 998.602 198.301 1027.741 258.226"/>
  </g>
  <g>
    <polygon points="1215.621 537.672 1260.358 629.673 1300.473 629.673 1315.961 597.31 1282.081 597.31 1252.941 537.385 1215.621 537.672"/>
    <polygon points="1424.943 537.359 1387.619 537.359 1301.795 717.357 1320.5 757.769 1424.943 537.359"/>
  </g>
  <g>
    <polygon points="1060.552 892.014 1076.039 859.652 1042.16 859.652 1013.02 799.727 975.7 800.012 1020.437 892.014 1060.552 892.014"/>
    <polygon points="1185.022 799.699 1147.697 799.699 1061.873 979.697 1080.579 1020.11 1185.022 799.699"/>
  </g>
  <g>
    <polygon points="1541.716 1245.744 1560.42 1286.157 1664.864 1065.746 1627.539 1065.746 1541.716 1245.744"/>
    <polygon points="1540.393 1158.061 1555.882 1125.699 1522.001 1125.699 1492.861 1065.774 1455.542 1066.059 1500.279 1158.061 1540.393 1158.061"/>
  </g>
  <g>
    <polygon points="978.888 340.596 960.183 300.183 960.17 300.211 960.156 300.183 855.713 520.594 893.037 520.594 959.711 380.758 959.711 380.815 978.888 340.596"/>
    <polygon points="1027.741 520.567 1065.062 520.281 1020.325 428.28 980.21 428.28 964.722 460.641 998.602 460.641 1027.741 520.567"/>
  </g>
  <g>
    <polygon points="1919.867 300.183 1815.424 520.594 1852.748 520.594 1920 379.546 1920 300.469 1919.867 300.183"/>
  </g>
  <g>
    <polygon points="1507.584 786.614 1544.903 786.328 1500.167 694.327 1460.052 694.327 1444.564 726.688 1478.445 726.688 1507.584 786.614"/>
    <polygon points="1440.025 566.231 1335.582 786.641 1372.906 786.641 1458.73 606.643 1440.025 566.231"/>
  </g>
  <g>
    <polygon points="1747.506 1048.955 1784.825 1048.669 1740.089 956.667 1699.974 956.667 1684.486 989.03 1718.365 989.03 1747.506 1048.955"/>
    <polygon points="1679.947 828.571 1575.502 1048.982 1612.829 1048.982 1698.652 868.984 1679.947 828.571"/>
  </g>
  <g>
    <polygon points="1540.393 892.014 1555.882 859.652 1522.001 859.652 1492.861 799.727 1455.542 800.012 1500.279 892.014 1540.393 892.014"/>
    <polygon points="1664.864 799.699 1627.539 799.699 1541.716 979.697 1560.42 1020.11 1664.864 799.699"/>
  </g>
  <g>
    <polygon points="1761.922 597.31 1732.783 537.385 1695.464 537.672 1740.2 629.673 1780.313 629.673 1795.801 597.31 1761.922 597.31"/>
    <polygon points="1904.785 537.359 1867.459 537.359 1781.636 717.357 1800.341 757.769 1904.785 537.359"/>
  </g>
  <g>
    <polygon points="1185.022 8.971 1147.697 8.971 1061.873 188.969 1080.579 229.382 1185.022 8.971"/>
    <polygon points="1060.552 101.284 1076.039 68.923 1042.16 68.923 1013.02 8.997 975.7 9.284 1020.437 101.284 1060.552 101.284"/>
  </g>
  <g>
    <polygon points="1095.661 786.641 1132.985 786.641 1218.809 606.643 1200.104 566.231 1095.661 786.641"/>
    <polygon points="1267.663 786.614 1304.983 786.328 1260.246 694.327 1220.131 694.327 1204.643 726.688 1238.523 726.688 1267.663 786.614"/>
  </g>
  <g>
    <polygon points="1060.552 363.626 1076.039 331.263 1042.16 331.263 1013.02 271.338 975.7 271.625 1020.437 363.626 1060.552 363.626"/>
    <polygon points="1080.579 491.722 1185.022 271.311 1147.697 271.311 1061.873 451.31 1080.579 491.722"/>
  </g>
  <g>
    <polygon points="1919.867 37.843 1815.424 258.254 1852.748 258.254 1920 117.205 1920 38.129 1919.867 37.843"/>
  </g>
  <g>
    <polygon points="1424.943 799.699 1387.619 799.699 1301.795 979.697 1320.5 1020.11 1424.943 799.699"/>
    <polygon points="1300.473 892.014 1315.961 859.652 1282.081 859.652 1252.941 799.727 1215.621 800.012 1260.358 892.014 1300.473 892.014"/>
  </g>
  <g>
    <polygon points="1781.636 1245.744 1800.341 1286.157 1904.785 1065.746 1867.459 1065.746 1781.636 1245.744"/>
    <polygon points="1780.313 1158.061 1795.801 1125.699 1761.922 1125.699 1732.783 1065.774 1695.464 1066.059 1740.2 1158.061 1780.313 1158.061"/>
  </g>
</svg>
