<svg xmlns="http://www.w3.org/2000/svg" viewBox="0 0 16 16"><defs><style>.a{fill:none;}.b{fill:#052460;}</style></defs><title>calendar</title><rect class="a" width="16" height="16"/><path class="b" d="M15,4.625a.362.362,0,0,1-.109.266A.368.368,0,0,1,14.625,5H1.375a.368.368,0,0,1-.266-.109A.362.362,0,0,1,1,4.625V3.5a1.443,1.443,0,0,1,.438-1.062A1.443,1.443,0,0,1,2.5,2H4V.375A.362.362,0,0,1,4.109.109.368.368,0,0,1,4.375,0h1.25a.368.368,0,0,1,.266.109A.362.362,0,0,1,6,.375V2h4V.375a.362.362,0,0,1,.109-.266A.368.368,0,0,1,10.375,0h1.25a.368.368,0,0,1,.266.109A.362.362,0,0,1,12,.375V2h1.5A1.494,1.494,0,0,1,15,3.5ZM1.375,6a.368.368,0,0,0-.266.109A.362.362,0,0,0,1,6.375V14.5a1.447,1.447,0,0,0,.438,1.063A1.446,1.446,0,0,0,2.5,16h11A1.492,1.492,0,0,0,15,14.5V6.375a.362.362,0,0,0-.109-.266A.368.368,0,0,0,14.625,6Z"/></svg>