<svg xmlns="http://www.w3.org/2000/svg" viewBox="0 0 1000 1000"><defs><style>.a{fill:#ebf0fa;}.b{fill:#dce4f5;}.c{fill:#e4eaf7;}.d{fill:#f2f6fc;}.e{fill:#fff;}.f{fill:#d5dff2;}.g{fill:#ee283b;}</style></defs><title>map</title><rect class="a" width="1000" height="1000"/><path class="b" d="M829.464,693.893a2.4,2.4,0,0,0,2.009,2.406A2.332,2.332,0,0,0,829.464,693.893Zm2.564-9.7c.661-3.066-2.379-2.669-4.705-2.4C828.75,682.819,829.808,684.589,832.028,684.193ZM784.346,909.437c-1.03-2.035-3.435-2.088-5.5-2.22-1.56.767-1.85,2.088-.37,3.251C779.827,908.856,782.232,908.592,784.346,909.437Zm44.035-224.583c-.159-1.348-1.084-2.009-2.617-1.692C825.658,684.642,826.689,685.62,828.381,684.854Zm-3.6,11.947c-.872,1.638.846,3.092,2.352,3.594C827.323,698.836,827.429,696.246,824.786,696.8ZM725.062,886.918c1.8-.026,2.141-1.083,1.163-2.352C724.719,884.777,724.48,885.755,725.062,886.918Zm-77.469-84.9a4.889,4.889,0,0,0-2.3.344A5.128,5.128,0,0,0,647.593,802.022Zm19.4-13.638c-3.092-3.806-8.986,2.141-5.154,5.445C663.584,792.216,668.288,791.5,666.993,788.384Zm92.3,123.459c.264,1.268.053,1.85,1.851,1.876A20.746,20.746,0,0,0,759.29,911.843Zm-4.863-1.375c-.872-3.409-5.947-2.616-8.59-2.273-4.758.582-9.832-.9-14.431.238-1.957-.291-6.687,3.145-4.282,4.863,2.273,1.613,7.533,3.014,7.664.265,3.331,3.3,7.216,1.374,10.864.185a9.693,9.693,0,0,1,4.784-.555C749.933,910.891,752.788,910.944,754.427,910.468Zm8.775,2.881a1.544,1.544,0,0,0,1.929,0ZM651.108,799.3a2.546,2.546,0,0,0-3.224,0,6.347,6.347,0,0,0,1.77,1.691A8.776,8.776,0,0,0,651.108,799.3Zm290,138.63c.582-2.537-3.409-1.692-4.652-1.031a2.82,2.82,0,0,0-1.136,2.564C936.932,939.278,940.686,939.912,941.108,937.93Zm.106-134.375c.423-.555.846-1.136,1.269-1.691A1.721,1.721,0,0,0,941.214,803.555Zm-3.647-12.132a5.291,5.291,0,0,0-4.071.185c-2.748,1.613-1.955,5.789-1.137,8.194,2.089-.978,3.251-2.907,4.2-4.758,2.141,1.348.265,5.577,3.251,5.762a10.1,10.1,0,0,1,.265-3.568c7.374,3.383,5.127-9.488-.424-1.533C937.672,793.168,941.452,792.481,937.567,791.423Zm7.612,83.39c.291,1.216.132,1.718,1.85,1.718C946.394,875.949,945.787,875.394,945.179,874.813ZM933.47,943.19a8.184,8.184,0,0,1,3.039-3.04,4.427,4.427,0,0,0-3.726,1.533C933.02,942.185,933.232,942.688,933.47,943.19Zm-13.692-66.5c1.137,1.8,4.468,1.268,4.309-.846.343.925.74,1.85,1.163,2.749.713-.873,2.537-2.749,1.745-4.044-1.481-2.353,1.083-3.41,1.664-5.419.37-1.11,1.745-8.669-1.612-7.03a32.858,32.858,0,0,0-5.26,2.96c-2.7,2.035,1.533,4.625-.264,6.793C920.81,872.7,919.065,875.579,919.778,876.69Zm37.691,65.654c1.454-1.427,4.388-4.916,2.167-6.978-.9,1.9-3.145,2.194-5.127,2.723a2.85,2.85,0,0,0-.978,2.563A3.668,3.668,0,0,1,957.469,942.344ZM849.789,825.1c.82,2.247,2.776.846.714,3.992-1.771,2.748.846,8.669,2.167,11.47,1.665-1.717,6.08-2.378,8.485-2.484,5.259-.264,1.215,4.308,3.013,7.057,2.987,4.546,2.4,8.432,1.665,13.665-.608,4.282-1.638,10.969-4.625,14.325-.714,2.881,1.189,5.5.951,8.353,2.855-1.216,4.916,3.858,8.088,1.665,2.141-1.507,2.167-1.8,5.1-1.507,2.775.291,4.414-2.511,7.19-.687-.529-3.991-4.335-7.427-2.935-11.55,1.85-5,2.8-8.273,1.956-13.771-.74-4.6.318-8.22.635-12.687.158-2.035-.132-4.07.053-6.105.317-3.436-1.428-3.436-2.458-6.344-2.009-5.656,8.8-10.281,13.611-8.933,4.362,1.215,3.278,9.832,1.084,12.105-6.185,6.343,4.837,13.559,11.022,16.519,2.643,1.243-3.6,9.938-.846,13.48,1.48,1.9,6.185,2.881,8.616,3.2,2.961.37,2.089-3.912,2.353-5.418.634-3.41,6.026-2.775,8.67-3.753,1.488-.546,7.331,2,4.871-1.091,2.876,2.569,5.716-5.283.943-6.5-.766,4.176-2.194-1.586-4.625-1.533.5-.634.977-1.242,1.48-1.877-2.088-.079-4.784-2.537-6.026-3.911-2.009-2.221.475-4.071-1.348-6.317.951.211,1.9.37,2.88.528-2.246-1.189-1.744-4.07,1.031-3.938a8.576,8.576,0,0,0-2.088-2.3c-1.559-1.48-.5-3.066-1.559-4.679-.9-1.374-2.907-1.48-3.912-2.722-1.11-1.454-1.533-3.727-2.484-5.313-1.4-2.4-2.591-4.757-5.472-6-2.325-1-3.568-5.34-6.607-4.045a41.628,41.628,0,0,0,.052-4.44c3.278,2.458,5.894,4.678,9.04.661,2.722-3.515,5.656-3.542,9.594-5.551,5.392-2.748,9.066-14.246,16.255-14.061,2.062.079,2.59,5.392,4.89,3.146,1.375-1.349,3.965-4.758,2.458-6.661-2.484-3.145-11.762-2.167-14.563-.053a7,7,0,0,1,4.044,1.718c-3.753.106-14.59-2.247-15.78,2.114-.793,2.908-10.572,2.8-10.07-1.268a20.217,20.217,0,0,0-8.035,7.876c-1.691,3.41-2.458,5.419-6.872,4.546-2.881-.555-5.63-1.215-6.528-4.123a13.243,13.243,0,0,0-1.56-4.282c-1.744-2.431-2.828-.449-4.678-1.638-6.053-3.859-6.661-15.859-4.1-21.172,1.56-3.039,4.123-6.475,7.533-8.087,2.828-1.348,9.568.872,12.449,1.8,2.035.687,6.026-.872,7.9-1.639,3.859-1.559,4.837.846,8.51,1.348,4.071.555,9.6-1.427,13.982-1.321,5.26.105,8.617.37,12.74,3.092,5.128,3.383,21.436,1.11,25.823-3.357,3.04-3.066,4.176-6.5,7.771-9.33,3.885-3.039,3.885-8.22,8.062-10.942a3.023,3.023,0,0,1-1.613-3.753c-1.506.343-3.568-.608-4.863.343-1.956,1.454-1.929,4.256-4.546,4.969-3.991,1.084-1.507,2.194-3.463,4.414-1.11,1.269-3.753.767-4.546,2.537-2.035,4.388-9.594,5.181-13.744,4.362A50.567,50.567,0,0,0,936.245,748c-2.061.08-4.07,2.115-5.736,1.507a51.749,51.749,0,0,0-14.51-3.33c-2.907-.265-4.573-1.031-7.665-.74-3.515.317-4.441-3.992-6.211-3.965-2.3.053-10.731-3.727-11.339.555-.846,5.841-6.925,11.392-11.5,5.26a7.977,7.977,0,0,1-2.961,4.678c-2.273,1.771-1.9,4.493-4.123,6.053-4.229,2.986,1,8.193-3.225,10.916a2.461,2.461,0,0,0-3.066-1.877c1.11,3.621,4.23,2.749,3.066,6.925-1.057,3.806,2.934,7.295,1.824,11.154-.925-1.427-1.321-3.093-2.8-4.255-2.194,5.761-7.163,8.774-7.322,15.356-.079,2.907.317,6.052.159,8.907-.185,3.33-3.595,5.5-3.754,9.066C856.9,818.964,848.31,821.132,849.789,825.1ZM962.094,940.467c4.679-.4,10.124-.052,14.406-1.823,2.7-1.11,1.559-3.727-1.217-4.15-1.638-.264-3.039.344-4.677.211-2.036-.185-4.044-1.136-6.133-.872-1.031,1.084-2.326,3.912,1.11,2.22C963.654,936.846,962.068,938.459,962.094,940.467ZM847.067,722.544a33.042,33.042,0,0,0-1.824-2.881A3.676,3.676,0,0,0,847.067,722.544Zm109.08,167.123c-.475-.555-.977-1.136-1.453-1.691C953.425,889.191,953.9,889.773,956.147,889.667Zm-7.426-10.414a1.921,1.921,0,0,0,2.008,1.533C950.069,880.284,949.408,879.756,948.721,879.253Zm36.818,57.99a4.266,4.266,0,0,0,2.643-3.066C986.7,934.045,985.75,936.318,985.539,937.243Zm3.2-238.724c1.216-2.141-1.93-8.96-4.969-5.974C986.86,693.312,985.7,697.356,988.737,698.519ZM963.68,955.612c-2.3.4-.079,6.264-1.639,7.189s-2.219-2.193-3.277-.845c-1.031,1.321-5.207-3.436-5.921-1.8-.687,1.639-6.449,10.044-7,11.868,1.11.687,1.057,1.427,2.591.846.819,2.537-4.308,3.33-4.388,6.66,2.22-.634,4.6-.079,6.872-.475,2.961-.5,4.837-3.384,7.9-3.463,4.89-.132,6.423-1.374,9.383-4.625,1.956-2.115,5.286-4.758,5.973-7.4a5.735,5.735,0,0,0,.28-1.861c.209.175.77.321,2.152-.1l2.3-9.092-4.52-2.987C966.693,952.388,972.852,954,963.68,955.612Zm-55.108,27.673c-.106.265-.211.556-.317.846a5.829,5.829,0,0,0,4.942-.819,1.1,1.1,0,0,0,.238-1.612C911.875,979.506,910,982.545,908.572,983.285Zm26.589-45.857c-1.268-2.828-4.942-7.031-5.471-1.56a4.639,4.639,0,0,1,3.806-.343c-2.458,2.722-7.189,2.907-8.96,6.264-2.141,4.044-6.423,1.348-9.119-.793-2.563-2.009-5.339,1.322-7.982.4-1.4-.475-1.242.5-2.061,1.216-1.269,1.137-3.991-.845-5.048-1.48-3.463-2.141-8.776-3.462-12.74-4.282-6.264-1.295-8.115.793-13.084,3.066-2.484,1.163-4.149,1.137-4.229,4.335-.026,1.639,1.031,6.555,3.516,3.568,1.982-.978,6,.132,8.352-.105a32.725,32.725,0,0,1,7.692.581c2.4.449,3.805,2.8,6.448,1.692,1.824-.767,6.37.713,5.393-2.511,6.105,2.22,8.537.74,14.113-1.11,3.727-1.243,17.233.449,14.775-6.4C933.232,940.415,932.73,937.481,935.161,937.428Zm-77.522,5.6c-3.066,3.674-3.118-3.119-4.017-4.546-2.167-3.436-5.947.106-5.683,2.67-.74-2.564-3.251-6.925-6.29-3.674-2.326,2.458-4.705-2.379-6.053-3.621-1.982-1.824-9.489-.45-7.083,2.616,2.933,3.727,6.528,4.626,10.783,6.714-1.189,1.559-4.625,2.4-6.581,2.8-3.383.688-3.991-2.14-5.55-4.07-3.674-4.493-14.088-2.907-17.339.661-1.56,1.718.343,4.387-1.084,6.158-1.9,2.326,1.93,4.2,4.07,4.705a4.03,4.03,0,0,0,3.542-.4c1.983-1.453,1.956-.5,4.652-.607,3.78-.133,6.661-3.516,10.546-2.432,3.965-1.877,7.982-2.485,10.071-6.449.951,1.321-.846,4.017.687,4.731,1.691.74,2.775.185,4.228-.344,1.85-.687,3.463.317,5.339.555a5.728,5.728,0,0,0-3.938-1.9C851.455,944.643,856.953,948.344,857.639,943.031Zm48.924,41.1c-.634.106-1.242.238-1.877.344A1.746,1.746,0,0,0,906.563,984.131Zm24.185-100.437c1.083-1.427,1.083-3.383,2.219-4.758,1.164-1.4,3.542-.661,4.652-1.982,1.56-1.9-2.22-5.26-4.175-3.3.422-2.088.184-4.255.766-6.317.37-1.375,3.066-5.894,3.806-1.877,2.035-3.171-2.088-5-1.956-8.008-4.89.079-6.4,9.515-6.5,12.845.027,3.489-1.4,5-2.616,8.194C925.461,882.425,928.1,881.368,930.748,883.694Zm65.971-65.628c.793-1.322-1.057-9.093-2.062-10.44C990.613,808.419,994.578,816.744,996.719,818.066ZM984.35,710.783c-1.93-.4-2.168.158-.635,1.718C983.926,711.919,984.138,711.364,984.35,710.783ZM996.8,837.572a10.881,10.881,0,0,0,3.2,3.483V830.884C995.431,831.377,994.56,833.486,996.8,837.572Zm-13.109-33.858c-2.643,2.59,4.361,2.722,5.735,2.722,3.151.068,7.62.435,10.576-1.072v-1.093C994.584,803.926,988.969,805.441,983.689,803.714ZM819.156,783.6c.767,3.092,3.436.449,5.894-.185-1.823-.978-1.876-2.4-.106-3.41-1.876-.634.582-2.326,1.031-3.727a5.471,5.471,0,0,0-3.753,1.692,43.676,43.676,0,0,1,3.092-20.008c.952-2.353,2.221-7.11,5.71-7.295,3.859-.211,2.643-2.934,1.057-5.075,3.542,1.295,8.722,6.925,13.321,4.89,2.749-1.242,5.947.132,8.009-2.643,1.665-2.247-.661-1.507-1.507-2.432-2.035-2.22-4.15-5.075-7.269-6.105-2.325-.767-3.462-3.066-5.418-4.414-2.458-1.666-4.81-3.489-7.136-5.287-1.639-1.242-.529-3.145-2.643-3.806,3.277.08,7-4.837,5.365-7.347a48.251,48.251,0,0,0-4.281-5.789c-1.375-1.586-6.08-3.515-2.274-4.44a9.079,9.079,0,0,0-3.6-.846c3.728-.476-.765-.714,1.639-3.066-2.775-.846-5.524-1.744-7.321-3.912,2.484,1.057,2.934-1.9,3.727-3.251a8.735,8.735,0,0,1-3.578-1.949,11.9,11.9,0,0,0,4.952.416,18.2,18.2,0,0,0-5.682-1.876c-.035.258-.089.516-.138.775a8.967,8.967,0,0,0-2.5-1.463c2.167-.845,5.761-.977,7.8.159a7.84,7.84,0,0,0-.45-3.568c.952,2.7,4.626,4.335,6.978,1.718-1.375-.476-1.322-1.507-1.8-2.537-.449-1.031-2.987-1.454-3.965-2.089,4.784,2.168-2.22-3.171-2.934-3.753a8.959,8.959,0,0,0,4.044-1.348c-3.991.317-6.4-3.7-10.546-3.383-3.224.264-8.14.846-10.652-1.4-.475,4.7-3.7.212-5.074.714-4.018,1.559-4.943.872-8.643-.37-.529,1.929-2.458,2.722-3.436,4.361a19.353,19.353,0,0,0-2.088,6.766c-.317,2.3,1.533,7.771-.053,9.119-4.176,3.463,1.031,7.4-6.079,8.167-5.656.582-2.458,7.956-.714,9.965-3.118.951-11.524,5.6-7.929,9.277,2.062,2.114-5.92,9.251-5.26,12.555-1.4.052-2.934-1.507-4.282-1.031-1.638.581-3.2,1.982-5.074,1.4-3.806-1.189-4.493,1.3-7.375,2.855-3.33,1.824-13.5-1.163-15.092-4.308-1.639-3.3-12.95-1.11-15.224,1.031-2.194,2.088-1.48,5.365-4.334,6.713-1.9.9-3.886,2.352-6,2.537-5.339.476-10.017-2.167-15.066-.185-2.564,1.005-6.74,3.674-9.621,2.326-1.533-.713-4.731-1.929-5.418-3.33-1.771-3.647-6.925-5.868-9.78-8.722-.978-.978-2.088-5.947-2.59-6.132-3.515-1.269-.344-3.859.053-5.947-1.85,1.559-5.154,2.088-6.185,4.388a13.386,13.386,0,0,1-2.722,4.651c-2.244,2.271-5.2,5.279-2.994,8.341a4.384,4.384,0,0,0-2.16,2.311c-.582,1.982,1.057,3.542-1.454,5.022-1.638,1.374-.132,6.528.185,8.141.793,3.806,4.1,6.422,6.555,9.435-3.013.265-1.454,2.908-.476,5.1-3.568-1.877-2.722,4.414-1.559,5.947.819,1.11,2.405.9,3.621,1.189,1.665.37,2.59,2.167,4.1,2.907-.871-.026-3.462-1.136-4.122-.158-.661.951-1.613,2.511-.027,3.357,2.8,1.48,4.863-1.718,6.978,1.77.581-.555,1.136-1.136,1.665-1.718-.079,2.3,2.3,2.934,3.462,4.6.952,1.375,1.216,2.934,2.326,4.362,1.612,2.114,1.216,4.07.423,6.369-.237.635-2.167,2.828-2.22,3.251-.185,1.85,3.515,3.516,3.991,5.6.555,2.484.132,5.048,1.031,7.48,1.321,3.568-.767,8.722,2.088,11.814,2.352-1.612,8.114-4.493,7.242.687,2.431.318,3.092-2.246,5.286-2.563a24.538,24.538,0,0,0-2.8,2.4c2.749.449,4.573,1.824,7.216.291,1.4-.82,2.881-2.247,4.705-2.194,4.387.106,5.233,2.564,7.374-2.723,3.039,4.837,1.322,9.2,2.59,14.088,1.031,3.991,5.683-2.167,6.9-2.987,3.357-2.193,6.555,2.353,10.043.741,3.357-1.56,7.533-5.551,7.4-9.119.581,1.718,6.449,8.749,5.471,4.784.873,3.462,3.542-1.163,6.212,1.4,1.48,1.4-.556,2.4.237,3.726,2.247,3.859,9.436-1.929,9.753-4.44-.739,4.705,3.12,2.987,4.784.344-2.563,4.678.106,5.947,3.886,2.563-.767,3.093,1.533,5.657,1.48,8.723-.053,2.167.291,4.493.079,6.607-.317,3.489,9.7-2.7,11-3.224,4.864-1.93,9.648-4.837,14.432-6.608,4.361-1.586,2.537-8.722,7.771-9.568-1.322-1.454-3.3-3.251-2.643-5.313,2.774,4.732,7.4-4.572,3.567-7.48a3.354,3.354,0,0,1,3.833.846c.872-1.136,3.172-6.211,1.93-7.506-1.295-1.348-4.282.449-5.789-.846,2.8-1.929,4.572-9.383-1.348-7.348,1.295-1.823,4.018-1.771,5.418-3.409,1.216-1.428.291-3.172,2.062-4.282,3.833-2.458.529-4.89,2.352-7.982C809.667,797.265,818.522,787.987,819.156,783.6ZM653.328,741.933a16.271,16.271,0,0,0,3.252-3.345C656.272,740.3,654.723,741.072,653.328,741.933ZM796.161,849.6c1.718-2.67,3.7-1.877,3.33-5.551-.29-2.881-1.718-6.872-.528-9.621C791.985,831.836,794.655,847.536,796.161,849.6ZM581.2,810.216c2.088-.714,5.629.925,6.29,2.854.581,1.718,2.114,3.78,2.458,5.287.819,3.488-1.427,4.942,3.04,7.136,1.929.925,10.7,6.845,12.713,5.154,2.009-1.665-1.163-2.432-1.8-3.833-1.057-2.193,1.851-6.132,4.2-6.554-3.066-1.639-7.163-.846-9.991-2.881-2.617-1.9-3.647-6.582-3.436-9.384.132-1.665-1.269-7-2.537-8.378-3.595-3.833-8.009.582-4.679,4.1-1.348.185-9.092-9.093-9.171-1.348,2.3,2.722-3.33,3.964-4.414,5.788C576.256,809.846,578.08,811.247,581.2,810.216Zm71.2,116.111a14.43,14.43,0,0,0-4.123-1.692C648.6,926.432,651,926.248,652.4,926.327Zm-76.174-25.242a5.36,5.36,0,0,0-2.009,1.375C576.1,903.358,576.785,902.909,576.229,901.085Zm223.765,34.44c-2.67,1.242-5.921,3.515-5.366,6.66.449,2.485-.264,6.529-4.017,3.939-2.7,4.07,12.581,2.933,13.215,3.568-1.427-2.485,2.273-7.269,3.489-9.3C809.192,937.3,802.61,934.626,799.994,935.525ZM636.941,690.484c-1.533-.873-2.564-.132-2.722,1.374,4.731.608,6.185-3.647,4.414-6.845-3.092-5.683-7.269-1.19-5.815,3.25A7.118,7.118,0,0,1,636.941,690.484Zm-15.568,134.56a5.986,5.986,0,0,0-2.273,1.347C620.607,827.026,621.479,826.524,621.373,825.044Zm-14.986,2.035a1.945,1.945,0,0,0,3.066,1.215,9.554,9.554,0,0,0-1.374-1.717C607.524,826.735,606.942,826.92,606.387,827.079Zm21.779,3.251c1.559.079,4.018,3.991,5.524,2.616,2.088-1.876,4.15-5.682,3.727-8.457-.608-4.044-7.8-5.578-11.445-4.917-2.458,2.3-2.933,6.238-2.59,9.278C623.752,832.074,629.144,833.766,628.166,830.33Zm134.084,98.8c.106-2.828-3.092-3.383-5.445-4.017-4.017-1.11-5.127.423-8.854.106-3.489-.317-8.088,1.956-11.207.634-1.956-.846-7.559-2.511-8.563-4.388-.872-1.612,1.982-9.224-2.22-5.867.713-2.538-1.877-4.969-1.824-7.507-2.511,1.163-6,.37-8.749.582a4.153,4.153,0,0,1-2.749-1.3c-2.008-1.454-3.911-.37-6-1.322-1.11-.528-3.145-4.493-4.864-2.484-1.718,1.956-5.444,1.612-7-.608-3.673-5.26-7.665-5.921-9.991.634-.793,2.22-2.088,7.216-5.92,6.106-2.141-.608-2.643-1.586-5-1.454-1.9.132-3.86.582-5.789.185a28.417,28.417,0,0,0-8.934-.344c-2.088.106-5.577-2.352-7.374-1.453-7.321,3.674-9.515-5.789-12.608-9.383-2.881-3.331-2.194-.238-4.6-.238-2.8,0-5.471-3.647-8.3-2.352-2.7,1.242-4.784-2.009-6.554-3.3-2.935-2.088-5-1.243-8.194-2.881-.423,2.379-2.881,5.682-5.736,2.881-1.771-1.19-10.334-2.591-11.894-1.19-.529-4.837-5.154,1.48-5.735,3.093-.582,1.586-.211,9.356-4.2,6.29-.476,2.538-2.114,4.6-3.013,6.978-1.269-2.379-3.674-1.718-5.55-.661,6.317,2.67,13.373-.528,19.136,2.908,1.8,1.083,4.255,1.163,6.211,1.982,3.093,1.295-1,3.277-1.348,5.128-.9,5.048,15.3,4.176,18.343,4.651,5.841.952,10.916,4.732,16.784,6.053,1.85.423,4.387.978,6.132.159,1.876-.9,1.321-2.406,4.1-2.458,7-.185,14.219,1.295,20.88,3.251,8.273,2.378,16.334,6.264,24.766,7.955,3.488.714,8.378.053,11.55,1.4,3.277,1.4,5.92.132,9.409.423,7.163.608,15.357,4.546,21.621.582,5.1-3.278,11.63,2.669,16.334,4.784,1.612.713,11.075,1.242,10.943,2.22-.239,1.744,2.8,2.828,4.36,2.114,1.164-.5-2.219-4.07-2.643-4.572C758.471,938.036,762.065,933.675,762.25,929.128Zm39.832-92.138c-2.141.344-1.9,2.4-.5,3.41A16.863,16.863,0,0,0,802.082,836.99ZM782.787,946.441c.661.4,1.322.819,1.983,1.216a2.312,2.312,0,0,0-.186-2.749A5.96,5.96,0,0,0,782.787,946.441Zm3.463-9.41c-2.512-2.22-7.374-5.339-10.784-3.621a13.6,13.6,0,0,1-13.057-.449c-2.194,4.2,4.229,6.264,7.559,7.639a13.709,13.709,0,0,1,5.26,3.356c2.669,2.934-.476,2.141-.5,4.282-.027,1.374,5.814-4.969,6.105-5.048C783.369,942.37,789.712,940.071,786.25,937.031Zm38.06-237.667c-.634-.185-1.242-.343-1.876-.528C821.957,700.4,822.592,700.58,824.31,699.364Zm-451.149-52.7c.422.582.845,1.137,1.242,1.718C377.231,649.172,375.936,645.921,373.161,646.661Zm128.612,85.266c3.013.555,3.2-3.039,4.309-4.6-.687-3.383-5.921-4.414-7.375-.766A4.184,4.184,0,0,0,501.773,731.927Zm32.7,24.555a11.21,11.21,0,0,0,1.956-1.348,2.485,2.485,0,0,0-2.432-2.062A2.127,2.127,0,0,0,534.469,756.482Zm5.92,18.052c1.322,1.348,4.2-.555,4.414-1.85C543.376,771.838,538.222,772.314,540.389,774.534Zm13.427-30.66c-1.3-2.854-3.991.37-4.044,2.062C549.719,747.971,554.054,745.8,553.816,743.874Zm-38.51-6.053c2.273.371,3.462,2.247,5.075,3.489.053-1.718.264-3.489-.423-5.127-2.8-1.058-6.079-.925-8.722-2.379C510.655,736.288,512.98,737.425,515.306,737.821Zm5.181,12.555c3.066,1.877,7.638-.026,10.652,2.353.131-.556.29-1.137.422-1.692a10.257,10.257,0,0,0-6.422-4.467,3.163,3.163,0,0,1-.779-.352c3.926-1.412,5.5,4.569,9.527,3.444-.734-2.909-10.766-8.489-9.671-3.53-1.1-.7-2.062-1.895-2.831-2.02C520.275,743.927,519.139,749.583,520.487,750.376ZM514.962,738.4c-.713,3.119-.528,8.7,3.939,9.383.74-1.718.449-3.595,1.268-5.286C519.059,740.729,517.394,738.747,514.962,738.4Zm32.511,8.7,2.061,1.031Q550.407,745.433,547.473,747.1Zm-9.991,3.251a4.11,4.11,0,0,0,2.194,3.409c.343-.581.66-1.136,1-1.718A2.383,2.383,0,0,0,537.482,750.35Zm398.1,98.376c-2.141.819-1.772,4.387.4,5.127C939.205,854.963,940.871,849.333,935.585,848.726ZM539.3,746.068a4.755,4.755,0,0,0-2.061-1.507C536.98,745.989,537.746,746.57,539.3,746.068Zm36.554,132.868c3.093,2.273,5.366,6.925,9.621,7.665,2.538.449,2.035-6.37,2.035-7.533-.053-4.414.424-8.828.661-13.268.132-2.352,1.745-5.709.529-7.956-.978-1.771-1.612-2.749-1.057-4.625.713-2.3,2.7-5.366,2.3-7.8-.291-1.8-2.564-1.877-2.114-4.335.4-2.114,1.8-3.991,2.96-5.815,1.215-1.956,2.22-2.8,1.665-5.259-.528-2.353-2.669-1.4-4.176-2.776-2.035-1.85-5.392-8.114-4.255-10.546-2.326-.343-13.454-2.934-14.3-.845-.369-.635-.713-1.243-1-1.877-2.353,2.7-2.564,6.476-6.079,8.352,1-1.4,5.735-6.132.978-6.158,2.537-.925,5.55-2.934,5.048-5.762-.37-2.141-2.854-1.4-4.361-2.194-1.506-.819-2.432-4.335-2.828-5.683a110.008,110.008,0,0,1-2.934-11.894c-.423-2.537-8.669-2.8-11.074-2.3-1.9.4-5.6-2.96-7.031-3.991-2.379-1.745-1.533-5.418-2.591-7.9a3.014,3.014,0,0,0,3.992.5c-.582-1.956-2.722-2.22-4.626-2.352a3.212,3.212,0,0,0,2.987-2.4,13.009,13.009,0,0,0-3.779.343c2.219-.608,3.515-2.379,5.127-3.7,1.216-1.031,4.546-.74,5.313-1.877,1.321-1.9-3.225-6.026-4.415-7.268-3.277-3.383-5.814-3.119-9.752-.634-3.066,1.929-10.81,6.766-13.956,2.907,6.634,3.462,19.876-7.242,7.665-9.727-1.956-.4-3.991.37-5.894-.343-2.141-.793-3.013-2.987-4.731-4.229-3.542-2.591-1.374-7.85-5.26-10.573-1.427-1-2.907-2.563-4.466-3.383-1.639-.846-3.886-.105-5.736-.978-2.987-1.4-2.643-5.6-4.52-7.9-.925-1.11-7.586-7.057-9.171-3.515-1.164,2.643,2.352,6.026,2.643,8.59-1.216-1.136-1.533-2.669-2.511-3.912-1.613-2.088-4.652-2.4-6.634-4.1-3.252-2.828-3.489-7.322-6.582-10.229a3.273,3.273,0,0,0-.66,3.568c-.5-.846-3.648-6.661-2.617-2.035-2.088-2.22,1.189-4.943-2.009-6.846-2.907-1.718-5.1-4.7-7.929-6.634-3.278-2.22-5.868-5.762-9.674-7.268-1.374-.529-2.828-.82-4.176-1.375-2.326-.978-1.93-2.511-3.41-3.965-1.955-1.9-5.5-2.008-7.48-3.753-2.484-2.193.978-6.026-1.691-8.008-3.2-2.379-3.833-2.405-5.181-6.185-1.136-3.2-7-7.454-9.726-9.7-1.718.872-3.965,2.193-6.026,1.665-1.956-.476-2.432-2.088-4.679-2.141-3.779-.106-7.136,1.639-11,1.321-4.546-.4-7.453-1.744-10.255-4.783-2.088-2.3-8.088-5.472-11.577-3.357-12.872,7.8,16.652,29.655,21.3,35.364,1.771,2.194,4.229,2.274,6.978,2.723,4.6.74,5.947,5.339,7.982,8.378,1.533,2.326,4.652,8.141,7.4,9.2,4.784,1.824,2.8,6.027,4.044,9.859,1.189,3.648,5.392,2.723,8.458,4.678,1.929,1.216,3.832,2.538,5.762,3.806a46.384,46.384,0,0,1,6.792,5.075c2.855,2.67.053,2.96.873,5.947.978,3.568,2.616,7.031,3.621,10.625,1.057,3.833,4.017,7.824,3.594,11.868-.423,4.255,3.331,1.639,5.075,3.541,2.881,3.146,7.242,2.406,8.061,7.507,1.216,6.661,11.128,11,12.978,17.973.264,1-1.612,1.136-.687,2.194a36.663,36.663,0,0,1,3.277,4.625c2.141,3.674,6.555,8.485,6.819,12.661.265,4.017.212,6.555,3.066,10.043,2.142,2.643,5.366,4.494,7.19,7.322,2.167,3.356,3.356,6.766,6.739,9.436,3.357,2.669,7.982,4.44,10.1,8.167,2.088,3.674,1.771,5.841,5.657,8.643,3.911,2.828,7.426,6.052,11.18,9.065a50.52,50.52,0,0,0,10.308,6.82c3.859,1.77,4.413,3.092,6.475,6.158a42.335,42.335,0,0,0,3.859,4.573,32.806,32.806,0,0,0,3.7,2.854c.819.634-.08,1.322.951,1.956.74.449,7.506,7.824,7.321,3.912-.131-2.273-2.669-4.044-3.065-6.291-.555-3.171,5.259.925,5.973,1.454C572.212,886.046,576.864,886.073,575.859,878.936ZM439.476,733.8h1.9Q441.855,731.821,439.476,733.8ZM418.543,737c-2.406-.951-3.859,2.115-6.37.714.317,3.2,3.409,5.524,4.863,8.273.9,1.691,3.092,2.273,4.15,3.858.978,1.428,1.11,3.146,2.008,4.6,3.859,3.779,5.471-6.767,3.78-8.908C424.965,743.028,421.767,738.271,418.543,737Zm24.739,50.457c-1.295,1.665-2.062,4.863-.608,6.634,2.749,3.383,4.441,8.96,9.647,9.964,7.85-1-4.784-14.8-4.652-18.078C446.374,786.613,444.18,786.322,443.282,787.459ZM412.728,722.2a15.7,15.7,0,0,1,3.753,2.907C416.481,723.417,415.133,720.588,412.728,722.2Zm57.038,96.023c-.74,1.956.713,3.833.37,5.789.634,2.035,3.251,1.11,4.017-.185C475.316,821.9,471.3,819.017,469.766,818.224ZM994.657,924.9c-2.51.978-3.594,4.281-3.806,6.554,2.863-2.262,5.817-2.415,9.149-2.036v-4.7c-.348.128-.709.259-1.087.393C997.3,925.693,996.032,924.344,994.657,924.9Zm-599.8-210.84a4.253,4.253,0,0,0-3.621-1.4c.792-1.9-2.062-3.33-3.542-3.912-.767-.317-1.349-1.744-2.4-.978-1.956,1.428-1.956,2.829-.08,4.335,3.119,2.485,8.722,2.511,10.467,6.344.819.528,3.832.819,3.383-.978C398.878,716.6,395.627,714.774,394.861,714.06ZM445.555,765.2c-.476-2.273-4.44-1.9-5.868-.687A7.877,7.877,0,0,0,445.555,765.2ZM461.2,809.291c-3.04,1.876,4.625,5.788,6.053,6.528C466.7,814,463.951,807.573,461.2,809.291Zm17.048,22.572c.291-1.639,1.4-1.243.793-2.908-.423-1.189-2.168-4.916-4.176-4.229-3.04,1.058,2.986,9.621,4.493,10.705C479.413,834.136,478.012,833.158,478.25,831.863ZM435.8,767.054a39.783,39.783,0,0,0,4.149,7.163C440.559,772.34,438.789,766.763,435.8,767.054Zm2.035,5.788a13.15,13.15,0,0,0-2.114,4.784c-.5,2.062,4.572,2.141,3.726-.845A3.45,3.45,0,0,0,437.837,772.842Zm74.615,104.033c1.9.819,2.828,3.594,5.286,2.722C518.161,877.3,514.3,874.654,512.452,876.875Zm356.1,66.843c-.713-.1-1.427-.238-2.114-.343a3.509,3.509,0,0,1-.29,3.753C868.741,947.683,868.106,945.066,868.555,943.718Zm18.9-30.157a5.909,5.909,0,0,0,1.8-1.375L887.269,911A2.117,2.117,0,0,0,887.453,913.561Zm-63.328,25.558c1.242-1.453,1.876-3.2,2.908-4.784C822.936,932.723,823.57,936.9,824.125,939.119Zm38.616,5.974c-.106-2.353,5.021-3.489.211-5.128C862,941.551,860.811,943.4,862.741,945.093ZM554.213,750.852c1.083-1.692.581-2.247-1.481-1.692C553.234,749.715,553.71,750.3,554.213,750.852Zm270.018,23.894a1.939,1.939,0,0,0-.714,1.876C823.755,775.988,823.993,775.353,824.231,774.746Zm59.6,124.965c.343-4.678,1.189-9.251-.027-13.956C880.608,886.707,882.96,897.517,883.833,899.711Zm57.408-107.918c-.608.714-1,.555-.344,1.692C941.029,792.93,941.135,792.348,941.241,791.793ZM894.722,916.442a14.461,14.461,0,0,1-3.832-.344C891.524,917.552,893.8,916.812,894.722,916.442ZM915.206,774.9c-1.269-1.559-2.775-1.506-3.991,0A3.7,3.7,0,0,0,915.206,774.9Zm-6.581,2.379a3.923,3.923,0,0,0,3.78-.5C911.321,775.063,908.625,774.983,908.625,777.283Zm5.286,101.759c1.533-1.348,1.031-6.264-.264-7.8C907.647,873.148,913.594,879.306,913.911,879.042Zm-59.417,57.329c1.771-.133,2.141-1.243,1.163-2.538A1.685,1.685,0,0,0,854.494,936.371ZM561.217,751.724c.66-.132,1.295-.238,1.929-.37A4.49,4.49,0,0,0,561.217,751.724Zm-5.472-.872c.185.634.344,1.269.5,1.877A3.7,3.7,0,0,0,555.745,750.852Zm8.934,15.541c-.952-1.242-1.929-2.431-2.987-3.594C560.794,764.464,563.543,765.812,564.679,766.393Zm-7.639-19.611c2.115.713,3.12-1.137,3.7,2.035.608,3.145,3.541-1.4,3.489-2.749C561.666,740.121,553.9,745.724,557.04,746.782Zm330.387,222.1c-2.3-2.115-4.043-3.886-7.216-3.886.159,0-5.339-5.471-6.026-6-.5-.37-8.986-.264-9.383-.026-3.78,2.273-9.541-1.322-12.5,3.674,2.087,4.229,6.5,4.1,10.81,4.52,5.127.5,9.436,4.7,12.845,7.955C882.405,981.2,894.96,975.7,887.427,968.881ZM559.023,763.83c-1.11,1.057-.688,1.691,1.295,1.85C559.869,765.072,559.446,764.437,559.023,763.83Zm2.669,8.59c1.586-.185,2.564-.952,4.176-.238,1.666.766,3.093,1.956,5,1-1.031-1.427-8.167-6.291-10.044-6.132C561.111,768.27,558.838,772.763,561.692,772.42ZM940.739,978.845c2.51.291,2.748-1.956,1.85-3.568A3.766,3.766,0,0,0,940.739,978.845Zm-9.278,8.881a2.835,2.835,0,0,0,.238,3.409c3.04-1.638,7.586-4.493,11.022-5.312a28.326,28.326,0,0,1-2.141-3.41C937.117,983.92,935.373,986.431,931.461,987.726ZM558.309,780.878c.079-1.719,1.058-2.247,2.643-1.19.45-2.035,2.062-4.044-.713-5.471a13.584,13.584,0,0,1-3.78,1.295C554.371,776.12,558.019,779.873,558.309,780.878Zm420.569,21.144c-2.352,3.119-11.629-2.009-15.251-.846-3.2,4.335-.422,8.141,5.34,6.45a24.59,24.59,0,0,1,2.8-1.348,20.312,20.312,0,0,0,3.357.29c2.088-.951,5.788-.211,6.661-2.669A2.494,2.494,0,0,1,978.878,802.022ZM953.61,936.556c-3.965-3.648-5.55,1.083-8.062,2.22,1.111-2.458-.818-2.326-2.8-2.035a8.811,8.811,0,0,1,1.454,1.691c-1.454.555-3.753,1.533-4.15,3.04-.687,2.7,4.837.66,6,1.4C945.443,939.648,950.782,937.058,953.61,936.556Z"/><path class="c" d="M839.508,266.056a5.259,5.259,0,0,0,3.806.528,8.922,8.922,0,0,0-1.242-1.718A10.237,10.237,0,0,1,839.508,266.056Zm72.315-12.581c-.925-.952-5.842-5.207-7.8-3.859-3.066,2.141-8.114,2.669-10.388,5.682-2.061,3.093-2.035,4.917-5.127,7.586-2.8,2.4-4.044,5.894-5.551,8.828-2.246,4.335-6.766,8.749-6.555,13.453.159,1.692.926,3.119-.079,4.917-.846,1.48-1.665,2.775-.449,4.017,2.246,2.326,2.378,6.132,3.463,9.119,1.295,3.489,5.417,4.493,7.347,7.506.635.952,1.084,7.216,3.3,6.264,2.881-1.189,2.141-5.127,2.246-7.057.133-3.092,1.613-5.418,4.15-7.955,6.027-6.027,9.225-17.26,10.149-24.4.186-1.48-.475-3.7.4-5.154.846-1.481,1.9-2.3,2.432-3.912,1.242-3.753.344-6.5,1.084-10.123C910.845,256.514,913.329,255.008,911.823,253.475Z"/><path class="d" d="M276.4,288.231a7.466,7.466,0,0,0,3.277,1.375c-.528-.4-1.057-.793-1.585-1.216Zm1.982,13.982c-.079-1.321,2.855-2.405,2.855-2.22.026-2.3-2.643-1.48-4.044-.343A2.752,2.752,0,0,0,278.379,302.213Zm1.428-5.629c.449.343.925.687,1.4,1.03A2.442,2.442,0,0,0,279.807,296.584Zm1.876,4.81c.212-1.85-2.828-.238-2.643,1.665.529,1.8,2.273,2.96,2.617,4.863a8.315,8.315,0,0,1-.476,3.886c-.291,1-2.907,6.132.449,2.511-.661.66-.819,1.268-.422,1.876,2.88,1.19,4.546-7.612,4.36-8.695C285.2,305.332,281.445,303.376,281.683,301.394Zm-3.726,13.956c.422.66,1.559-.952.422,1.189a2.9,2.9,0,0,0,1.031-3.066C278.908,314.081,278.432,314.715,277.957,315.35Zm2.88-7.507a3.533,3.533,0,0,0,.08,2.22A2.694,2.694,0,0,0,280.837,307.843Zm7.745,6.819c4.837-2.061,2.511-6.211.951-8.854A22.186,22.186,0,0,1,288.582,314.662Zm8.22-10.731a4.26,4.26,0,0,0,1.718,5.287C300.74,307.473,298.044,304.909,296.8,303.931Zm8.22,17.735a7.578,7.578,0,0,0,.74-3.594A5.471,5.471,0,0,0,305.022,321.666Zm.343.159a35.067,35.067,0,0,0,.582,5.286C309.356,326.054,307.48,322.512,305.365,321.825Zm14.458-8.484c-.793-5.868-2.247-11.418-3.277-17.207-.793-4.493-1.058-9.515-2.459-13.85-1.189-3.647-4.757,1.507-7.083-.528.5,2.722-.238,3.2-1.824,5.63-1.638,2.431.529,5.709-1.11,7.638-4.361,5.154-6.343-3.647-8.167-4.414a6.515,6.515,0,0,1-.714,3.41c-1.083-3.225-4.334-8.432-3.488-12,.607-2.537,4.387-6.475,3.911-8.8,1.983.237,5.5.793,5.577-2.036,1.031,1.8,3.33-.951,5,.5,1.215-4.309,9.224-9.066,6.872-14.326,10.493.872-.5-5.709-4.811-6.079-9.356-.793-19.136-.053-28.625-.053a46.4,46.4,0,0,1-13.268-2.3c-2.643-.846-1.559-2.749-1.269-4.864.476-3.224,1.3-13.585-4.863-13.136.635,1.454-.132,2.828-1.084,4.282-2.8-1.507-7.189-2.167-8.325-5.154-.767-1.982-.872-4.6-4.282-4.07a6.551,6.551,0,0,1,2.009,3.594c-1.956-.714-6.132-.634-6.687-2.8-.608-2.406-4.15-3.3-6.106-4.705a9.468,9.468,0,0,0-1.057,2.22c1.8.026,3.621.74,3.859,2.379-6.608,2.035-12.185,9.674-5.207,12.264,2.775,1.031,3.278,3.859,5.524,5.339,1.665,1.083,5.577-.82,5.392,1.506-.264,3.357,5.339,2.088,2.088,5.63-1.85-.951-6.5-.555-8.775-.185-.925.159-3.859,9.674-6.423,4.6-.423,2.035-2.828,3.542-2.96,5.63-.132,2.009,2.537,3.462,4.044,4.44,2.59,1.665,8.669,1.956,9.541,4.573a9.433,9.433,0,0,1,.476,5.418c-.528,1.745-3.039,2.432-3.436,4.335-.793,3.727,5.181,3.912,4.441,6.687-.344,1.295-1.956,3.462.105,3.912.978.211,3.119.132,3.04,1.427-.106,2.3-1.057,3.462-.529,5.868a47.581,47.581,0,0,1,.74,5.471c.4,3.806,2.485,6.819,2.406,10.784-.053,3.568,3.515,6.079,2.854,9.33,1.613-1.242,3.436-4.943,2.908-6.661,1.189,1.612-.133,3.621.766,5.286,4.387-3.436,1.3-8.537,1.744-11.92a17.254,17.254,0,0,0,1.481,5.973c.017-.042.024-.084.04-.126-.339,2.582-.263,4.9,1.2,4.884a17.008,17.008,0,0,1,.661-3.225c.766,1.216,2.854,2.3,3.964.291,1.242-2.22-1.321-2.352.027-4.176,1.876-2.537-1.348-6.026,3.171-7.559-2.114,3.489-2.035,6.422-1.3,9.911,1.031-1.083,2.009-2.167,2.987-3.251a10.187,10.187,0,0,0-1.639,3.251,22.977,22.977,0,0,0,4.89-3.938c-.793,2.7-4.89,3.806-4.335,6.819.661-.475,1.348-1,1.983-1.533-2.194,2.591,1.955,3.912,3.118.688,1.005-2.7,2.247-5.022,2.221-7.85a3.857,3.857,0,0,1,.079,3.409c5.1-.819,5.445-7,2.749-9.383-.634.555-1.216,1.11-1.8,1.718.476-2.246,2.115-5.392-1.532-5.445,1.982-1.929,3.356-3.858,1.665-5.973,1.586-.582,3.7-1.718,2.907-3.357-1.163-2.405-4.811-3.489-7.136-4.837a53.121,53.121,0,0,0,5.207,1.3c3.118.344.264-3.488-.5-4.017a3.211,3.211,0,0,0,3.172-.344,15.891,15.891,0,0,0-.661,1.877c1.094-.1,1.655-.117,1.929-.124-.475.726-1.948,1.3-1.717,2.318.4,1.85,1.427,2.431,1.031,4.572a4.628,4.628,0,0,0,.29,3.621c.688.978,3.674,9.833,6.634,8.432a1.518,1.518,0,0,0,.185-1.771,3.133,3.133,0,0,0,3.859,1.533,1.772,1.772,0,0,1,.74-1.824c1.639-1.48,4.573-2.3,5.075-4.493-1.268,5.286,5,9.145,6.079,13.823a5.931,5.931,0,0,1,2.564-3.938c-5.683,5.683,2.035,11.55,2.062,17.075a35.4,35.4,0,0,0,.422,7.8c.556,2.881,3.384,6,4.838,8.563.29-2.035-3.6-12.4.5-12.977,2.722-.37,4.942,3.171,7.321,2.564C319.982,325.287,320.563,319.023,319.823,313.341Zm-60.544.175a7.819,7.819,0,0,1,.863-3.955C260.059,310.122,259.65,311.7,259.279,313.516Zm22.633-28.26c-.136-.113-.283-.334-.1-.778A.721.721,0,0,1,281.912,285.256Z"/><path class="e" d="M324.078,348.256c-.264.872.08,1.507,1.058,1.877C324.792,349.5,324.422,348.89,324.078,348.256Zm2.881,9.039a22.864,22.864,0,0,1,1.851,3.569,9.693,9.693,0,0,0-2.379-5.287C326.589,356.159,326.774,356.714,326.959,357.3Zm9.753,1.031c-.872,1.348.926,2.908,1.85,3.568A4.093,4.093,0,0,0,336.712,358.326Zm4.679,21.806a6.634,6.634,0,0,0-3.013.872C343.822,387.374,344.853,380.026,341.391,380.132Zm6.528-9.885c-.872-2.009-3.674-2.062-4.942-3.754C339.831,369.031,344.853,373.735,347.919,370.247ZM361.9,434.209c-1.454,1.243-6.713,5.207-4.2,6.978C359.919,439.337,363.09,437.011,361.9,434.209Zm3.33,8.353c.08-.582.159-1.137.238-1.718C364.835,441.663,364.465,441.4,365.231,442.562Zm54.792-13.639c-1.084.4-1.93,4.071-.582,4.071C422.031,432.994,422.481,429.187,420.023,428.923Zm9.383,86.271a3.386,3.386,0,0,0,1.11-1.877C428.269,512.974,427.9,513.608,429.406,515.194Zm1.268,12.951a4.088,4.088,0,0,0-1.031-3.41A25.282,25.282,0,0,1,430.674,528.145Zm1.533-10.387a8.071,8.071,0,0,0-1.559-1.877c.159.634.29,1.242.423,1.877Zm2.3-19.956c.264,1.137.528,2.273.819,3.41C436.674,499.864,436.119,498.437,434.507,497.8Zm-2.141,44.669a6.657,6.657,0,0,0-1.295,1.717c2.722-1.136,3.436,1.692,4.07,3.225A5.9,5.9,0,0,0,432.366,542.471Zm.581-10.044c3.251-.212,3.436-5.392,2.194-7A56.411,56.411,0,0,0,432.947,532.427Zm2.829-24.052c.211,1.744.872,3.462.29,5.286C436.912,514.9,441.987,507.291,435.776,508.375Zm-3.093,55.584a3.425,3.425,0,0,0,1.956-2.881,11.973,11.973,0,0,0-2.22,1.189C432.5,562.822,432.578,563.4,432.683,563.959Zm5.366-34.783a2.285,2.285,0,0,0,2.326,1.533C441.854,525.185,435.035,524.127,438.049,529.176Zm.343-9.727c.053.582.132,1.137.212,1.718.449.793.872,1.586,1.3,2.379a6.986,6.986,0,0,0,2.061-1.533A7.51,7.51,0,0,1,438.392,519.449Zm1.189-8.7c-.132.635-.237,1.269-.37,1.877C439.687,511.731,440.3,512.075,439.581,510.753Zm52.942-189.774c-3.648,2.141-10.308,8.141-14.22,5.683-1.9-1.189-3.938,2.379-5.154.74-.767-1-1.11-3.2-.027-4.388-6.5-.079-1.136-5.074-3.938-7.664-2.59-2.379-10.387-.318-13.77-1.3-4.943-1.48,1.982-6.422,2.035-8.933.053-2.379-1.824-7.692,3.172-7.507-1.111-5.127-5.551-2.378-10.1-4.546-3.33-1.612-1.639-5.5-4.07-7.586-.9-.766,1.189-2.325-.053-3.726-.978-1.11-2.009-1.85-2.353-3.357-.555-2.643,3.595-3.7,3.278-6.37-5.26,3.066-10.493-.819-15.806,1.586-1.242.555-8.669,5.181-9.7,4.361-2.194-1.718,1.189-4.149,2.246-5.841.608-.978-.607-3.41-.925-4.282-.687-1.982-3.118-2.009-2.854-4.6.264-2.484.634-4.784,4.308-5.022-1.612-3.013.846-5.392,1.375-8.537,3.753,3.621,6.211-5.735,6.925-7,1.321.106,4.36,1.559,4.334-.687,0-.687,2.617-4.388,3.542-4.123,5.233,1.453.978-4.282.661-5.763,3.991,1.481,2.088-3.436,2.7-4.889,1.453-3.568,1.4-6.476,1.11-9.912-.582-7,.951-14.3-6.449-17.576.475,1.348-.608,2.4-2.247,2.881-.766-2.273-2.247-4.2-3.013-6.476-.582-1.665.238-3.7-.476-5.339-1.9-4.52-9.2-5.1-12.052-8.643-.45,1.612-1.56,3.172-1.745,4.811-.159,1.321-2.352,1.876-2.7,3.3-.925,4.018,1.269,3.278-3.912,7-3.594,2.59-6.449,5.207-3.885,8.616,1.4,1.877,4.07,3.145,4.044,5.762-3.885,1.269-5.022-2.485-6.581-4.1-1.19-1.189-3.41-.211-5.075,0-3.515.476-8.484.027-11.128,3.04a25.453,25.453,0,0,1-4.863,4.652c-1.612,1.136-5.365,2.141-5.894,3.673-.555,1.639-3.621.793-4.837,1.428-3.885,2.035-4.519,7.295-3.383,10.044,1.427,3.33-.37,5.523-2.194,9.277-1.586,3.224-10.413,7.744-7.453,10.969,5.709,6.105-8.854,20.034-9.991,27.858-1.533-1.19-7.771-3.595-10.017-3.251-2.274.343-2.3,1.136-3.965.053a3.286,3.286,0,0,0-2.379-.714,39.086,39.086,0,0,1,1.137,15.3c-.265,2.22-1.269,7.585-4.864,5-.052,4.652-1,8.061.423,12.475.529,1.56,1.454,6.82-2.3,4.731-.5,1.137-.185,4.177-2.009,4.652-2.564.688-3.092-3.013-4.969-3.621.132,1.454-2.352,2.749-1.982,4.018a10.7,10.7,0,0,1-.106,3.991,26.862,26.862,0,0,0,1.348,9.542c-2.854.739-4.07-2.882-6.846-2.617-2.246.211-2.431,3.541-2.828,4.837,1.375,3.383,2.194,7.691,4.229,10.7,1.692,2.511,5.154,4.044,5.656,7.189,1.56-1.691.688-3.541.609-5.259.925,1.506,3.382,3.251,2.722,5.339-.555,1.771-1.93,3.039.5,4.017,2.009-2.8,2.3-6,4.07-8.854a6.79,6.79,0,0,0-.581,3.912,2.126,2.126,0,0,1,1-.5c-.793,1.163-1.559,2.379-2.273,3.569a12.038,12.038,0,0,0,2.749-.159c-2.538,3.3-1.56,5.048.4,7.85a3.286,3.286,0,0,1-.318-3.41c.555,1.216,1.19,2.406,1.85,3.569a49.565,49.565,0,0,0-1.955-5.445c2.457.978,4.255-.449,5.788,1.586.819,1.083,3.013,2.934,4.89,2.167a8.129,8.129,0,0,1-1.031,3.568,26.369,26.369,0,0,0,4.6.529c-3.78,2.167,1.85,4.149,2.934,5.656,1.982,2.722-1.4,3.885-3.833,3.251-1.083-.291-2.617-.634-3.092-1.612-.635-1.3-3.146-.317-2.511.634,2.3,3.515,4.6,7.771,9.066,9.462,1.4-2.008.607-5.207-.661-6.819,2.96,2.009,2.643-1.665,2.537-3.251,1.057,1.93.45,5.445.185,7.639-.4,2.96,2.273,3.409,4.388,4.81-3.357.582-.344,1.824.555,3.938a14.46,14.46,0,0,0,2.167,4.15c2.485,2.775,1.216,7.956,2.511,11.365,1,2.643,3.251,9.41.053,11.815-1.242.951-1.322,6.264-2.115,8.061s-6.449,18.026-1.9,16.493c3.118-1.083,8.325-7.453,7.215-10.281a8.294,8.294,0,0,0,1.137,0c-1.057,3.938-.318,8.3-3.648,11.761,2.7-.264,3.463-2.775,4.811-4.44-.846,1.929-1.454,4.07-3.939,4.943a5.7,5.7,0,0,0,1.9,1.718c1.718-2.3,3.172-7.375,6.106-8.353-1.665.714-4.282,8.4-2.643,9.833,3.436,2.96,3.885-8.934,6.528-7.295-2.061,1.321-2.008,5.947.238,7a8.7,8.7,0,0,1,1.586-4.6c-2.009,5.366,1.586-2.749,1.718-2.907.291,1.77-2.8,7.664-.423,8.51,4.625,1.613,8.141-7.268,7.718-9.885,2.035,2.035,8.748-1.453,5.868-3.409,2.563,2.695,6.422-.582,5.418-3.463-.74-2.062-3.7-4.546.211-5.392-2.775,2.617.476,6.555,3.78,6.317,3.225-.238,5.233-3.277,6.793-5.471,2.141-3.013.555-5.973,1-8.854.132-.846-.079-4.52.37-4.943.37,1.692,2.035,2.7,3.278,3.806,1.427,1.322.74,3.78,2.8,2.67-.317,4.308,1.48,8.008,3.912,11.365,1.348,1.824,5.26.529,7.427.238-3.462,1.163-2.273,5.524-2.431,7.77-.106,1.216-1,2.591-.529,3.754.529,1.3,1.85,2.061,2.246,3.489,2.036,7.295.159,15.488,2.7,22.836.688-.344,1.348-.687,2.009-1.031a4.9,4.9,0,0,1,.793,1.877c-4.308-2.221,1.956,8.986,2.247,10.572a44.157,44.157,0,0,1,.106,6.5c.026,1.956,1.8,3.753.872,5.789,2.3-2.221,1.559-7.8.793-10.229,1.929,2.59,1.77,6.052,3.092,8.933,1.427,2.987,3.251,5.974,4.388,9.066a38.508,38.508,0,0,1,2.4,9.41c.185,1.9-1.427,3.938.872,4.625-2.8.555-1.8,2.4-.132,3.251a7.924,7.924,0,0,1-2.96,1.031,2.56,2.56,0,0,0,3.277,1.691c-3.779,1.8,2.458,4.784-2.167,6.661,3.911-.344.026.978.264,3.41a7.791,7.791,0,0,0,4.044-2.379,4.218,4.218,0,0,0,.528,2.537c-3.3,0-2.695,5.445-2.484,7.084a12.869,12.869,0,0,1-2.669,9.938c-1.084,1.374.37,2.035-1.719,3.119-1.744.925-.977,2.193-.713,3.647.608,3.6-1,8.326.978,11.524,2.326-3.066,2.96-6.581,5-9.647,1.375-2.088-1.083-4.124,1.481-5.9,3.726-2.563,6.871-6.977,9.356-10.783,2.4-3.648,7.163-9.04,6.264-13.057-.634-2.8-2.326-5.128-3.092-7.85-.767-2.7-.106-5.128-2.353-7.269-2.405-2.3-2.431-3.964-3.541-6.872-1.19-3.066.66-2.749.634-5.471-.079-5.894-.37-12.079-4.758-16.652-4.652-4.836-11.074-9.065-14.246-15.012-1.163-2.22-2.378-5.524-1.427-8.115.661-1.823,2.3-2.986,3.965-1.48-.37-2.4,3.092-2.246,3.621-4.255a32.053,32.053,0,0,0,.343-9.119c-.4-4.467.9-2.22,4.07-4.361,2.353-1.639,3.727-5.233,1.534-7a11.753,11.753,0,0,1-2.8,3.595c-2.775-3.569-3.119-7.745-3.938-11.947-.5-2.7-2.881-2.326-3.886-4.018a33.5,33.5,0,0,0-4.044-5.048c-2.352-2.643-7.268-6.661-8.167-10.044-.529-1.929.423-3.806-.581-5.709-.687-1.269-1.718-2.564-1.163-4.176-4.15,1.057-5.26-3.621-5.736-6.132,1.137,2.485,6.106,1.877,7.929-.211,2.062-2.273-1.427-4.837-.792-7.057.475-1.692,2.643-3.489,2.4-5.181-.185-1.269-1.11-2.881-.529-4.229,1.216-2.775,3.991-4.625,4.361-7.4-.026.211,8.96,1.4,9.859,1.48,1.85.158,5.524-3.093,6.661-2.353,1.189.767,2.193.952,2.907-.608.634-1.4.793-6.052,3.251-6.237,1.956-.132,2.908,1.8,5.154.978a3.075,3.075,0,0,0,1.639-4.652c4.81-.212,8.563-4.07,11.92-.687,1.242-2.749.9-6.714,4.176-8.7,1.877-1.137,6.264.158,7-2.379-4.334,2.062,1.322-6.819,2.168-7.85,1.057-1.321,4.52-1.982,6.158-3.119C494.584,325.605,492.258,323.94,492.523,320.979Z"/><path class="d" d="M607.471,553.73a4,4,0,0,0-.608-5.1C607.1,550.479,605.462,552.356,607.471,553.73Zm2.141-.343c.053-.556.106-1.137.159-1.692A3.1,3.1,0,0,0,609.612,553.387Zm50.721-43.638c-.555-.529-1.137-1.031-1.718-1.533A2.185,2.185,0,0,0,660.333,509.749Zm.37-7.744a21.718,21.718,0,0,1-2.591-6.687c-.37-1.8-3.066-3.383.556-3.806a9.349,9.349,0,0,1-2.512-3.6c2.565,4.07.212-2.643.529-4.943.766,4.15,1.137-.158,1.031-.977a22,22,0,0,0-1.56-4.784c-1.532-3.833-2.035-7.983-3.462-11.789-1.057-2.828-3.515-5.524-3.833-8.537-.158-1.639,2.221-.766.926-2.881-.846-1.374-1.084-3.832-2.855-.872.238-3.489-14.193-12.608-8.431-16.546-3.2-1.612-1.057,1.665-2.907,2.723,2.034-1.745-3.278-9.357-7-5.974-1.876-3.145-4.837-5.339-8.141-7.321.82.238,1.613.528,2.406.846-1.4-1.56-5.286-6.793-8.458-5.286,2.854-4.15-5.26-7.93-7.718-9.886-3.384-2.669-4.863-7.982-9.568-8.7a6.83,6.83,0,0,1,3.859,1.375c-.529-2.908,1.057-5.366-1.375-7.665a42.9,42.9,0,0,0-5.6-4.282,19.853,19.853,0,0,1-5.181-4.863c-1.03-1.454-1.136-5.471-2.669-2.8.291-3.885-4.679-4.837-1.427-9.039,2.881-3.727,1.4-6.4,2.432-10.335.74-2.881,2.431-7.163,5.92-8.59,1.057,1.454,8.141-4.361,8.564-5.63a1.255,1.255,0,0,1-.767,0c2.168-1.215,2.484-5.735,1.9-7.347.661.4,4.572.449,3.779-1.11-.977-1.877-2.114-2.749-.078-4.52a6.6,6.6,0,0,1-2.406-1.692c2.617-.74,2.775,2.062,4.335,2.881.29-.951,3.488-3.647,5.444-3.224-3.726,3.171,2.882,1.453,4.309-.291,1.48-1.824-.529-4.308,2.669-4.758,2.987-.4,4.071-2.643,6.529-4.2,2.7-1.745,2.617,1.665,5.26-.132-1.771-1.348-3.648-4.176-6.661-3.41-2.379.608-4.546,2.4-5.154,0l-2.141,1.031c-.37-2.828-6.978-2.167-6.449-5.128.37-1.956-5.022-3.542-6.767-2.379-.845-4.546-3.065-7.955-2.219-12.607,4.1,1.3,3.2-4.2,1.9-5.577-2.59-2.669-7.216,1.507-9.251-1.189-2.009-2.67-5.71.132-8.908-1.322a22.218,22.218,0,0,1-9.514-8.114c-1.9,2.828-8.247,3.092-9.41,5.656-.714,1.559,1.48,2.8-.872,4.6-1.9,1.454-12.793,5.762-10.969.978-3.542.132-5.657,7.348-6.793,6.634-1.8-1.11-3.013-2.881-4.44-4.335-2.274-2.352-2.881,1.322-3.885,2.829-1.639-2.009-2.194-5.657-5.472-1.771-2.379,2.828-5,5.022-7.586,2.352-1.453-1.507-6.739-6.132-9.488-3.145-1.692,1.823-1.719,6.449-5.339,6.317,1,3.066,5.286,6.74,7.929,8.828,1.929,1.533,1.824,5.5,4.255,6.184a3.326,3.326,0,0,0,1.5-3.078c.728,2.671,4.28,2.063,2.306,6.012-1.164,2.353-.609,7.031.581,9.013,1.031,1.718,5.366,6,8.167,5.551,2.432-.423,5.26,1.8,7.242,2.96,2.616-2.59,1.929-4.863,6.952-5.656,3.224-.5,4.44,1.216,6.422,2.643,1.666,1.189,4.7,2.141,3.965,4.678-.423,1.507-3.331,1.137-4.177,2.934,2.141.819,5.234.159,5.789,2.67.264,1.163.291,2.035,1.877,1.85,2.325-.265,4.625,1.612,4.255,3.674-.264,1.638-2.96,2.246-4.018,3.409,3.833,1-4.466,5.181-7.242,4.784-.687-.079-7.4-1.956-8.061-.687-1.268,2.379,5.022,3.621-.423,5.762-3.832,1.506.37,3.357,1.982,3.753,5.551,1.4,8.8,7.533,14.7,8.775.581.106,9.463,1.771,7.268,3.463-1.77,1.374.159,4.229.794,5.471.872,1.639,2.986,2.194,3.938,3.806,1.242-.82,2.22.106,2.8.872,1.4,1.93,1.717,4.388,3.039,6.37,2.035,3.066,5.18,5.868,7.744,8.643,1.348,1.454,3.833,2.009,4.837,2.881a14.572,14.572,0,0,1,5.18,11.021c.053,1.375,1.163,4.441,2.432,5.181,2.194,1.242,3.648-1.454,5.128,1.427,1.083,2.141,2.484.846,3.541,2.406,1.4,2.088,4.6,3.964,7.164,4.863-1.3,1.982-5.631,2.881-6.185,5.1-.45,1.877,2.933,3.6,4.228,4.414,2.828,1.744,7.348,5.524,4.917,9.33-1.587,2.458-4.547,1.877-1.639,4.255.476.37.026,4.573-.132,5.366-.582,3.33-3.516,5.524-3.6,9.277-.053,3.093,1.427,2.881,2.273,5.207.582,1.665-.211,2.934.661,4.7.529,1,1.031,2.009,1.559,3.013,1.533,3.251-.132,5.682-.872,9.066-.9,3.938,3.833,12.4-.158,15.488-1.481,1.137-3.727.978-5.472,1.4-2.246.555-2.775,2.088-4.6,3.145a57.582,57.582,0,0,1-6.449,3.331c-1.9.713-3.859-.133-5.735.264,1.48,1.824-.318,4.176.687,6.158-2.141-.4-7.48-3.832-9.436-1.453-1.269,1.533-3.648,1.77-3.383,3.779a18.553,18.553,0,0,0,1.929,6.37c1.216,2.194,5.63,2.3,5.789,5.445-2.538.344-.529,1.9-.767,3.753-2.326-.687-5.26-.476-6.528-2.643-.529-.9-1.19-1.956-2.591-1.718-3.991.687-9.409,4.07-12.713.952-2.114,1.77.582,3.568-1.163,5.391a14.9,14.9,0,0,1-3.726,3.066c-1.534.608-3.2.238-4.732.238-1.453,0-2.431,1.824-3.753,2.221.635,1.11,1.163,1.189,1.533.158-1.929,5.709,12.5,4.731,11.92,11.445-.369-4.176-4.175,1.612-4.757,2.986a17.964,17.964,0,0,0-1.295,6.317c-.211,4.282.529,8.564.132,12.846a16.817,16.817,0,0,0,2.537-.846,10.645,10.645,0,0,0,.635,2.22,6.737,6.737,0,0,0-3.939,2.062c3.067,2.7,8.353-1.084,10.441-3.357,3.066-3.33,3.41-6.476,8.22-8.564,2.854-1.242,8.775-2.061,9.964-5.154a4.036,4.036,0,0,0-.486-3.451,4.7,4.7,0,0,0,2.257,1.416,18.162,18.162,0,0,1-3.437-3.807c2.582,2.548,5.39,4.725,7.613,3.675,6.476-3.066-6.925-11.471-7.48-14.193,3.621,2.643,5.736,6.819,10.335,8.537.619-.8-.566-2.429-2.134-4.085l.019.015c2.511,1.665,2.934-1.586,5.286-1.9-1.268-2.7-5.206-2.378-7.427-4.1,1.375.053,8.088,1.718,7.533-1.718-.422-2.67-3.806.211-4.308-1.692,2.907.634,4.123-2.035,3.674-4.1-.053,0,4.123,1.19,1.982,1.19,1.4,2.193,1.718,2.326.951.343a10.287,10.287,0,0,1,1.032,2.723c.4-1.19.766-2.379,1.136-3.569-.053,3.014,3.489,2.934,4.6,5.287,1.639-1.639,5.709-2.829,7.823-4.15,1.586-1,5.075-3.145,6.952-2.564.661.212,2.4-3.621,3.33-4.123a28.777,28.777,0,0,1,6.529-2.511c1.348-.344,2.114-2.537,3.885-3.172a37.661,37.661,0,0,0,3.726-2.273c4.124-1.8,2.723-1.876,4.044-5.1.239-.5,2.855-1.242,3.648-2.8.714-1.453.74-2.854-1.427-2.8.766-1.665,1.982-3.436.951-5.128a5.46,5.46,0,0,1,.793,3.41c1.163-2.062.212-9.357-1.374-10.731a12.635,12.635,0,0,1,3.7,1.348c-.951-2.22-3.938-6.132-.105-8.009a6.918,6.918,0,0,0,1.929,3.41C660.782,507.635,661.231,502.93,660.7,502.005Zm-67.3,66.768c-1.936-2.482-5-4.866-6.1-6.664,1.316.743,3.386,3.228,5.651,5.494A8.23,8.23,0,0,0,593.4,568.773Zm7.1-8.047c-1.538-1.506-3.15-2.9-3.732-3.56C598.525,557.348,599.434,559.322,600.5,560.726Zm6.338-222.355c.291.555.582,1.136.873,1.691C608.105,339.243,607.815,338.688,606.836,338.371Zm2.591,1.876a5.924,5.924,0,0,0,2.854,2.379C614.29,340.432,611.224,339.851,609.427,340.247Zm11.312-9.039a20.464,20.464,0,0,0-1.8,4.6C621.162,334.75,623.831,332.4,620.739,331.208Zm1.85,4.943a11.213,11.213,0,0,0-2.854,2.722A3.565,3.565,0,0,0,622.589,336.151Zm8.326-7.507c-.66.106-1.321.238-1.982.344A1.9,1.9,0,0,0,630.915,328.644Z"/><path class="f" d="M318.184,543.845a6.257,6.257,0,0,0-2.7,5.6c.741,4.837,5.577-.291,4.018-3.224A20.945,20.945,0,0,0,318.184,543.845ZM329.47,522.2c-.608-.344-1.189-.687-1.8-1.031A2.334,2.334,0,0,0,329.47,522.2Zm1.031-2.907c.053-.582.106-1.137.159-1.719C330.078,518.392,329.682,518.154,330.5,519.291Zm-7.982,60.368c2.141.555,2.617-.08,1.427-1.877A2.051,2.051,0,0,0,322.519,579.659Zm4.308-77.654c.978-2.221,6.079-6.819,1.3-7.8,2.141-1.375,1.983-3.516.688-5.1-5.181,3.331-2.459,9.357-3.939,13.824-4.044,2.8-.951,11.259-.925,14.642-4.678-.766-6.872,13.322-.555,12.793-2.616-1.744.37-1.929.555-3.885.185-2.353-1.163-4.573-.053-6.951.82-1.8,2.723-3.331,2.485-5.366-.37-3.2,1.084-1.057,1.982-3.991C329.285,507.238,325.823,504.278,326.827,502.005Zm-3.568-.45h-.952a6.18,6.18,0,0,0,.793,1.877C323.153,502.8,323.206,502.19,323.259,501.555Zm93.063-310.3c.555-2.352-1.3-6.079-4.7-5.233-3.991.978-5.947-2.273-9.859-1.4-.9.212-6.423,2.088-5.392-.053,1.4-3.039,3.066-4.044,5.18-7.083,1.375-1.983-3.383-3.568-1.982-6.053-1.057.238-6.317,3.436-6.581,1.612-.37-2.563-.608-3.013,3.7-4.519-.581-.529-5.524-4.969-6.132-4.758-2.8.9-8.141,2.3-10.1,4.52-1.109,1.242-1.295,3.594-3.568,3.674-2.246.079-4.255-1.11-6.052-1.824-2.273-1.189-2.8-1.163-1.639.106-1.084-.635-6.132-4.361-7.48-3.78-1.559.714-3.066,1.665-4.52,2.511-3.938,2.352-6.422,5.418-10.043,8.009-4.52,3.224-12.4.423-14.22,6.1-1.163,3.595-10.52,6.238-10.361,8.855.343,6.264-6.925,4.387-11.286,5.233-2.908.555-4.176,1.9-7.19,1.242-3.779-.846-3.805,2.722-2.352,4.467,2.67,3.172,11.551.37,7.692,7.136-1.163,2.062,4.228,6.317-1.375,6.872-2.22.238-7.612,1.8-8.775.238-.74-1.031-4.044.9-5.815.952-5.735.185-12.158,1.189-16.493-1.85-1.744-1.19-5.074,1.85-6.634,2.669-1.506.767-3.964.819-5.55.952-3.727.343-5.418-2.485-9.013-2.908-5.366-.634-9.594-.476-11.736-5.392-.951-2.22.212-2.035,1.824-3.568,1.057-1.031-1.348-2.405-1.771-2.96-2.405-3.251,5.5-10.916-1.321-12.74-3.463-.9-8.194,1.771-11.894,1.983-.423,3.092-.079,5.523-1.031,8.695-.819,2.59-1.823,5.656-1.057,8.115,1.374,4.44,3.78,6.475,1.877,11.682-1.111,3.066-1.8,3.277-5.075,3.2-1.533-.026-8.379-.793-9.436-.026-2.7,2.009-7.163-.688-7.031-3.357-4.546,1.242-6.1,3.674-10.255,1.242-1.639-.951-9.383-3.409-11.392-2.749-6.845,2.274-3.2-4.07-8.114-3.726-2.009.158-6.026,3.066-7.268,1.031-1.56-2.538-6.37-3.992-9.595-4.679-3.753-.766-.026-5.656-4.07-6.793-1-.264-15.409-5.709-14.141-.343-3.3-1.375-4.889-3.013-8.537-.952-2.7,1.56-5.445-.634-7.8-1.057-4.467-.819-4.678-1.586-6.793-4.387-.608-.82-5.365-.873-6.66-1.507-2.987-1.454-6.238-4.2-10.361-2.855-1.771.582-7.242-3.806-8.3-4.414-3.594-2.061-4.916-5.048-8.986-6.449-3.41-1.163-6.952-3.726-9.938-5.5-.635,3.436-7.189-1.375-8.775-3.093-2.67-2.881,2.59-5.445,3.594-7.85,1.11-2.669-.925-3.859,1.163-6.66.582-.793.529-4.15.952-4.361,4.2-2.273,7.057-8.96,12.634-9.251-2.776-3.7-7.612-4.546-12.053-6.423-1.612-.661-4.044-.687-4.07-2.511-.053-1.084.185-2.537-.687-3.33-1.3-1.19-3.912-.635-5.049-2.115-1.876-2.405-4.2-.793-7.03-1.3-2.352-.423-6.106-4.308-6.978-6.132-.634-1.268-.952-3.647-3.542-2.934-1.665.476-1.374,2.168-3.541,2.406-4.97.581-.5-5.815-1.851-7.375-2.246-2.643-.5-6.052-2.96-9.092-1.136-1.427-3.145-2.405-3.3-4.361-.132-1.744-.264-3.357-1.374-4.758,4.757-2.616,7.691-2.14,8.643,1.322,1.242,4.573,5.867.952,8.616-.793,3.119-2.009,7.084-2.722,4.573-6.343-.74-1.084-1.824-1.983-2.221-3.251-.343-1.137.476-2.723-.317-3.674-1.638-1.93-6.184-2.141-8.22-4.15C42.457,80.749,42.3,77.339,41.77,73.8c-.582-3.991-1.533-4.387,3.066-7.057,2.405-1.4.29-2.8-.476-4.07-2.7-4.52-10.282-3.674-13.242-6.529-2.775-2.7-2.22-6.977-4.229-10.043-1.348-2.035,1.321-6.45-3.039-5.419-1.3.318-1.666-.713-3.252-.29a23.9,23.9,0,0,0-5.391,2.537c-2.115,1.189-9.436,4.044-8.7,5.894.2.515-3.936,3.611-6.511,5.254V589.589a73.37,73.37,0,0,0,7.436,7.8c3.383,2.828,5.973,4.705,10.731,2.854,3.013-1.189,6.634-2.933,8.537-5.471,3.78-5,.661-11.18,8.194-14.431,5.788-2.511,14.669-5.524,19.717-.687-.581-.476-2.458-3.568-3.436-3.225a6.889,6.889,0,0,1-4.493.106c-5.26-2.009-1.322-8.088.687-10.863,1.031-1.427,4.176-3.251,3.225-5.1-.635-1.243.422-2.564,1.136-3.648,1.322-2.114,4.071-1.242,5.947-.766.925.211,6.132.951,1.084-.529a39.384,39.384,0,0,0,3.964.5c.529-4.546-.317-9.066.08-13.612.238-2.775.449-5.973-1.533-8.22a12.848,12.848,0,0,0-2.009,1.375c3.727-3.516,1.956-9.621,3.753-13.85,2.326-5.392,6.449-9.779,7.85-15.515.767-3.225,3.172-10.969,1.3-13.929-1.03-1.639-2.643-1.745-4.255-2.643-1.242-.714-1-4.784.5-1.639,0-4.388,2.564.925,3.119,2.035-1.586-6.423-2.643-11.656-2.247-18.264.212-3.832-1.216-7.929-2.405-11.682-1.348-4.573,2.511-10.837,5.418-14.933,1.983-2.8,11.762-6.08,9.7-.318.872-1.744,2.405-3.515,1.77-5.444.582,1.665.423,3.515,2.379,4.44.053-2.035,3.04-5.841,3.938-8.009.793-1.955,1.269-3.621,3.912-3.753,6.449-.264,15.171.291,18.819-6.264,1.85-3.33-2.458-4.07-.74-6.978a18.349,18.349,0,0,1,4.81-5c1.824-1.348,17.656-7.586,14.722-9.224,4.917-1.9,6.106-7.507,11.1-9.436,5.815-2.247,9.859-6.74,13.348-11.26,3.462-4.467,6.132-8.907,10.81-12.555,2.062-1.612,5.63-6.158,7.665-6.66-.872-1.85-4.281,1.8-4.81,2.907-.74-2.907,2.616-7.03,5.973-8.008,3.251-.952,2.194,3.3.106,4.255,6.4-.793,12.74-3.3,18.713-5.788-1.718-.873-4.176-1.824-4.546-3.754,3.832,5.181,5.894.185,9.964-2.4,3.41-2.167.9-2.352,2.221-4.625.872-1.507,3.119-2.458,4.6-3.383-1.955-1.851-3.436-9.912-2.563-12.4,1.321-3.621,6.4-5.259,10.07-6.184,6.951-1.771,10.546-3.886,14.828-9.066,3.806-4.573-2.961-3.885-3.093-7.48,1.031,3.568,5.128,2.722,5,7.163-.106,2.881-.846,7.427,1.533,9.541a3.732,3.732,0,0,0,.788-2.057c.49,1.387.079-2.911,1.591-.612a13.852,13.852,0,0,0,.792,1.348c1.057.661,1.322-5.419,1.348-5.656,2.247,1.612.714,5.233,1.216,7.506,1.137-3.41-1.031-11.365,2.987-13.823-1.269,1.744-.212,3.488-.952,5.286,2.326-1.507.555-3.119,2.511-3.912-.29,2.67-2.458,5.92-1.427,8.511.978,2.458,2.8.845,3.436-1.031-.159,1.4,1.8,3.6,3.648,2.352,1.744-1.136-2.168-5.63-2.591-6.766q1.11.555,2.141,1.189c2.088-2.854.82-6.634-.528-9.383-1.322-2.7-1.058-4.334-.714-7.321.264-2.22-1.692-3.621-1.665-5.815,0-1.084,2.484-3.674.476-4.229-.344-.079-2.485-.343-2.617-1-.317-1.745,1.612-4.546-.925-4.7-8.722-.581,5.815-16.2-1.771-16.7a17.835,17.835,0,0,1-9.885-3.7c-3.621-2.907.026-5.682.766-9.224,1.612,3.251,4.52-.4,5.207-2.458.661-2.009,1.242-2.141,3.753-2.352,1.877-.132,4.679-.4,6.211.4,3.251-3.542-2.352-2.273-2.061-5.63.185-2.326-3.727-.423-5.392-1.506-2.273-1.48-2.775-4.282-5.55-5.339-6.978-2.564-1.4-10.229,5.206-12.264-.37-2.855-5.656-1.242-2.775-4.6,1.428,1.031,3.093,1.771,4.441,2.881,1,.793,1.215,2.484,2.352,3.039,1.8.846,4.1.9,5.973,1.586a6.5,6.5,0,0,0-1.982-3.594c3.753-.582,3.885,3.224,5.128,5.18,1.453,2.326,5,2.722,7.453,4.044.978-1.454,1.718-2.828,1.084-4.282,5.973-.423,5.5,10.361,4.467,13.586-2.432,7.585,12.369,6.237,18,6.845,4.441.5,8.669-.634,13.11,0,3.383.476,6.951-.079,10.467-.132,3.938-.026,8.827,1.4,11.1,3.912,2.062,2.141-3.092,2.326-4.281,2.22,2.378,5.339-5.6,9.859-6.9,14.326-1.639-1.428-3.938,1.3-5-.5-.053,2.829-3.6,2.273-5.577,2.036.661,3.224-5,6.766-3.885,10.308,1.083,3.541,2.3,7,3.488,10.519a6.86,6.86,0,0,0,.687-3.409c2.644,1.083,1.507,3.938,3.49,5.365,2.035,1.48,5.127-.978,5.022-3.013-.106-2.114-1.217-4.229,1.321-6,2.379-1.665,1.665-3.2,1.269-5.233,1.929,1.691,6.607-2.987,6.792.079.238,3.515,1.19,7,1.745,10.467.714,4.493,3.33,8.431,3.647,12.977.265,3.806-.026,7.85,1.19,11.445a3.959,3.959,0,0,0,2.088-3.595c5.207,1.718,3.859,6.053,6.977-1.031,3.753,2.089,2.828-3.145,2.326-4.731-1.427-4.387-.475-7.823-.449-12.475,4.018,2.907,4.784-3.912,5-6.079a38.918,38.918,0,0,0-1.268-14.22c1.929-.317,2.141.872,3.674,1.163a30.038,30.038,0,0,1,3.726-.476c2.379.555,7.216,1.877,8.96,3.251.925-6.185,4.679-12.211,8.59-17.656,1.586-2.193,3.886-5.233,3.384-7.77-.317-1.639-2.035-2.141-2.459-3.595-1.268-4.044,9.357-7.189,8.723-12.026-.238-1.982,2.881-3.04,2.616-4.863-.184-1.375-1.268-2.379-1.4-3.859a10.664,10.664,0,0,1,1-6.106c1.427-2.669,2.987-1.453,5.339-2.511,2.194-1,1.137-1.638,2.564-2.511a3.79,3.79,0,0,0,3.568-1.242,55.847,55.847,0,0,0,6.291-5.022c2.748-2.431,11.682-5,14.88-4.176,3.357.819,3.568,6.026,8.3,4.467.106-5.445-9.277-7.8-1.268-13.559,1.48-1.084,4.863-2.987,5.63-4.573C417.459,192.869,416.137,192.155,416.322,191.256ZM345.54,628.582c2.353-4.2.344-5,.45-8.7C339.091,616.768,344.3,626.547,345.54,628.582Zm-2.933-13.294a2.272,2.272,0,0,0-1.322,3.409C342.844,617.984,343.664,616.662,342.607,615.288ZM340.888,593.8c-.052-.555-.079-1.136-.1-1.691A12.15,12.15,0,0,0,340.888,593.8Zm-4.493,9.225c-5.55,1.771,4.758,3.674,0,0Zm2.855-4.1c-2.723.132-1.058,2.855.026,3.568A4.312,4.312,0,0,1,339.25,598.927Z"/><path class="b" d="M728.339,325.076a3.9,3.9,0,0,0-.475-3.6A9.177,9.177,0,0,0,728.339,325.076Zm-5.523-.687c1.559.079,2.537-.687,2.563-2.062A3.782,3.782,0,0,0,722.816,324.389Zm37.346-17.127c-.724-.566-2.008-.316-2.944.149a16.493,16.493,0,0,0,1.755-1.1c-1.295-1.824-3.41-.951-5.577-.344-5.128,2.644,3.145,4.177,5.339,4.6C756.726,307.473,762.779,309.323,760.162,307.262Zm-51.514,18.131a3.255,3.255,0,0,0,2.168-2.22C709.177,323.385,709.018,324.2,708.648,325.393Zm-26.034,7.348c-1.718.846-1.506,1.4.66,1.692C683.037,333.878,682.825,333.3,682.614,332.741Zm246.6-331.47A5.942,5.942,0,0,0,926.324,0H914.631c-.074.08-.143.16-.218.24A1.65,1.65,0,0,0,914.2,0h-39.05c-1.278.676-2.414,1.212-2.972,1.429,2.3,2.67-2.246,4.15-5.6,4.573-4.784.608-8.986-.053-11.524-2.432a3.616,3.616,0,0,1-1.2-3.57H0V36.851c5.431,3.061,16.28,3.572,20.889,3.405,9.383,5.445,5.075,13.3,10.863,16.652,4.2,2.458,7.348,5.815,12.106,7.216,5.524,1.612-1.9,3.356-2.141,3.911-.45,1.11-1.824,9.251,2.3,13.771,3.674,4.017,3.357,3.647,9.463,5.312,1.506.4-.053,3.992.925,5.287,1.215,1.638,3.383,3.938.766,6.317-2.141,1.929-4.784,1.744-6.872,3.964a3.2,3.2,0,0,1-5.1-.105c-2.353-3.2-2.8-5.71-9.119-2.247,1.745,2.22.37,5.392,2.564,7.427,1.48,1.4,3.78,2.775,3.674,5.022a9.674,9.674,0,0,0,.978,5.418c.9,1.8-.45,3.727-.212,5.656.688,5.445,6.106-2.3,8.7.423,2.537,2.723,3.383,7.163,7.877,8.379,2.986.793,5.392-.9,7.8,1.454,1.374,1.374,2.326,1.559,4.149,2.246,2.432.9-.343,2.961.555,4.229.582.82,3.119,1.084,4.15,1.348,4.943,1.216,9.251,2.881,12.132,6.423,3.2,3.991,7.454,3.2,7.956-3.013,2.616.951,3.383-1.956,5.867-1.216,2.3.661,5.207.449,6.846,2.035a76.652,76.652,0,0,0,14.669,11.048c3.595,2.115,8.854,2.7,10.995,5.5.793,1,5.551,8.061,7.771,6.4,6.185-4.546,10.414.185,11.259,4.52.688,3.515,8.036,5.788,11.155,7.586,1.955,1.136,6.264-1.375,7.3-.265,1,1.084-1,3.357-.846,4.679.29,2.431,10.757,3.568,12.026.819.608,3.383,4.678,5.127,6.132,8.088,1.427,2.907,2.96-4.1,3.594-4.52-.317,2.167,3.78,5.1,6.238,4.731,1.612-.264,1.084-2.3,2.669-2.828,1.771-.634,3.833.661,5.1,1.269,3.594,1.718,6.026,3.145,10.255,3.2,4.705.106,11.286-1.348,15.515-.212-.027-.634-.027-1.268-.027-1.876,5.207-.317,13.11-5.339,14.564,1,.951,4.071-4.2,9.489,1.057,11.947.846-2.828,4.6-6.9,6.555-9.462a31.639,31.639,0,0,1,10.229-8.828,14.637,14.637,0,0,1,11.1-1.19c2.907.793-.08,4.124,3.356,4.15,3.489.053,6.529.027,9.463,1.348,3.3,1.48,4.017-1.744,7.136-1.4,2.062.238,8.009,1.93,7.639,4.018-.423,2.378,1.374,2.59,3.779,2.881,3.3.4,6.238-1.454,9.674-1.56,5.392-.158,5.973-2.669,7.77-6.079,1.348-2.617,6-3.621,8.3-5.815,2.484-2.405,1.3-5.048,5.973-5.735,4.2-.608,7.031-.529,10.6-3.463,2.8-2.325,5.181-5.312,8.669-6.9,2.432-1.11,4.547-2.722,6.661-2.22,1.824.449,4.2,2.326,5.788,3.251-1.823-2.511,3.331.581,3.78.766,1.136.45,3.462,1.507,5.075.661,1.771-.925,1.48-3.119,3.356-4.123,1.824-.978,8.458-4.705,10.15-3.515a59.78,59.78,0,0,1,5.128,4.493c-1.666.581-7.454,4.149-3.2,5.022,1.9.4,4.228-1.692,6.105-2.115-1.665,2.934,3.066,4.018,1.824,6.37-.767,1.454-2.749,2.828-3.912,4.15-.74.845-2.7,3.039-1.084,3.647,2.273.846,3.727-1.692,6.027-1.718,2.484-.026,4.783,1.665,6.766,2.511,2.167.925,3.991-.9,5.92,1.11,3.516,3.727,5.234-3.013,5.868-5.312,2.458,3.013,7.824,4.149,10.81,6.977,1.8,1.692,1.243,3.674,1.507,5.947.317,2.591,2.379,5.075,3.224,7.533,1.639-.476,2.723-1.533,2.247-2.907,3.278,1.453,5.471,1.982,5.524,5.418A52.092,52.092,0,0,0,445,213.8a29.833,29.833,0,0,1-.027,11.656c-.4,1.744.185,8.061-3.515,6.687.37,1.718,3.013,3.251,2.22,5.339-.4,1.031-2.563-.159-3.356.291-5.049,2.854-.767,5.365-7.4,4.942-.714,1.243-3.172,10.6-6.925,6.978-.555,3.172-2.987,5.524-1.374,8.537-2.8.185-4.2,1.85-4.124,4.123.133,3.067,1.163,2.776,2.432,4.917.819,1.374,1.692,4.017.661,5.682-1.057,1.692-3.833,3.41-1.745,5.049,1.031.793,8.458-3.806,9.7-4.362,5.312-2.431,10.546,1.454,15.8-1.585.317,2.854-4.6,4.07-3.2,6.925.819,1.717,4.282,3.277,2.062,5.576-.423.45,1.11,2.221,1.268,2.485,1.665,2.934.582,6.661,5.842,6.661,3.964,0,6.528.317,7.321,3.911-5.154-.185-3.092,6.74-3.965,9.172-.608,1.665-5.973,8.431-.528,7.771,4.255-.529,9.145-.74,12.819.977,3.356,1.56-2.591,7.428,4.176,7.507-1,1.11-1.031,4.52.687,4.863,1.692.317,2.617-2.4,4.493-1.242,3.912,2.458,10.573-3.542,14.22-5.683-.291,3.146,1.269,5.921,2.088,8.8.952,3.3,1.4,3.092,5.234,2.114,2.51-.634,4.123,2.961,6.343,1.375,1.612-1.19-1.031-3.965-.872-5.287.158-1.268,1.559-2.352,1.585-3.594a16.428,16.428,0,0,0-1.136-2.141c-.4-2.194-1.9-3.965-3.013-5.841-.978-1.639-2.009-10.256,3.092-10.256,1.163,0,.5,1.93,1.9,1.56a20.882,20.882,0,0,1,3.093-.5c1.559-.106,2.907,1.876,4.467.158,2.933-3.171,4.863-9.039,9.779-4.942,2.246,1.876,5.286,6.528,8.748,2.141,3.78-4.758,4.124-3.938,7.243-.132,1.427-2.115,1.718-5.181,4.308-2.353a19.969,19.969,0,0,0,4.018,3.885c1.136.688,3.25-6.528,6.792-6.634-1.85,4.784,9.066.45,10.969-1,2.3-1.771-.265-4.1,1.533-5.233,2.828-1.824,6.819-2.141,8.748-5.022,2.618,4.044,6.318,5.63,10.1,8.511,2.511,1.9,4.493-1.4,6.9-.265,1.982.925,2.986,3.04,5.973,1.824,7.4-2.934,7.427,7.612,2.8,6.132-.846,4.652,1.348,8.088,2.193,12.607,2.406-1.585,4.547.873,6.449,1.4,1.322.37-.5,1.243.186,1.851,1.9,1.638,6.211,1.4,6.607,4.255.714-.344,1.428-.687,2.115-1.031.714,2.828,5.6-.766,8.458.4,2.061.792,6.528,1.321,6.317,2.854,1.665-.74,2.7-2.114,2.22-3.595,1.11-.105,3.277,2.776,4.282,1.533,2.088-2.563-1.982-4.123-1.031-6.634-.106,2.432.819.714,1.665-.5,1.481.529,1.718,1.692.449,2.881,2.432-.5,2.829,3.436,5.128,3.753a3.932,3.932,0,0,1-.343-3.409,12.759,12.759,0,0,1,2.035.528c-3.621,3.6,1.771,1.613,3.013,2.538,1.057.793.264,8.035,3.515,3.251,1.031,2.326,5.366-.608,6.714-1.718-1.48-.661-1.93-1.983-.714-3.41,1.031,1.612,1.8,5.524,4.916,4.969a19.374,19.374,0,0,0-.634-1.876c1.321,1.215,6.766,2.431,2.352,4.6-2.881,1.4-.74,2.616-2.96,4.334-1.137.9-1.612,5.656-.185,5.815,2.246.211-.106,3.621,2.7,3.3-3.093,4.017,2.934,3.409,3.119,6.317-3.2-1.586-1.428,1.163-1.93,2.907,3.462-1.348,10.757,1.11,12.105-3.912.793-2.96-3.647-4.519-3.383-7.532.767,3.911,1.982.264.238-.291-1.242-.423-3.3-.476-3.753-1.771-.819-2.22,2.4-3.489,4.044-4.731,2.273-1.744-.476-3.013.872-4.969,2.22,1.718.238,4.361,4.678,3.251-.845-1.745.741-3.436,2.538-4.441a14.336,14.336,0,0,0-2.22,2.723c1.9-1.956,5.523-2.643,8.088-3.172,2.061-.4,5.973-1.982,4.043.608a6.353,6.353,0,0,0,3.489-3.066c2.194,3.595,9.648-2.22,5.551-3.753,2.564-.106,6.872,1.691,4.1-2.22,1.453.4,7.955,4.916,9.33,2.431,1.084-1.982-.185-4.017.5-6-.476,1.559.423,2.273,2.22,1.718-2.749,1.955.925,5.048,2.406,3.594,2.219-2.141,4.625-4.572,6.713-1.559,2.7-2.035-.317-5.577,3.489-7a2.988,2.988,0,0,0,1.9,3.252,4.224,4.224,0,0,1,3.224-2.564c-1.189-2.405-4.863-5.128-4.1-8.167.98,1.207,4.378,9.633,7.484,7.692.078.547.156,1.118.26,1.664a2.643,2.643,0,0,0,.189-2.016l.022-.019c3.013-3.013-1.533-9.832-3.674-11.26a1.365,1.365,0,0,0,1.481-.026c0-1.163-3.806-2.485-4.838-2.881,2.749.9,7.85-2.035,3.806-3.568,2.8,1.189,6.053-2.511,8.723-.687-2.273-.344-4.573-.027-6.211,1.876,1.427,1.19.924,3.225,2.352-.158-1.8,5.286,5.074,6.607,4.387,11.576,2.776-2.986,12.45-3.3,12.978.344a7.207,7.207,0,0,0,2.141-1c-2.749-.66.476-3.013-2.035-3.409a8.509,8.509,0,0,1,6.158-2.749c-1.9,1.242-2.484,3.806-.158,4.388,1.866.479,4.394-1.591,1.819-2.7,1.709.391,5.991-1.7,7.352-3.036-.74,2.379,1.4,2.194,3.384,3.515.634.45,2.113,1.348,3.039.265,1.533-1.771-2.537-3.7-2.643-5.154,1.77.793,3.859,1.506,5.894-.159-3.357,4.255,8.194,2.881,5.814.159,1.8,1,5.472.317,7.639-.238,3.3-.82,2.432-3.489,3.621-5.551,1.454,1.666,2.115-2.511,4.071.159-.106-2.537-2.908-2.485-5-3.225,3.648.476,5.551-.29,6.608-3.568.951-2.986,2.009-2.167,3.568-.581,1.745,1.824,4.493-4.123,5.022-4.546,2.062,0,6.74-3.621,6.264-.185.37-1.824,2.035-3.436,1.613-5.287,2.14-.4,2.59.212,1.4,1.877,2.7-1.322,2.114-3.621,3.939-4.81,1.162-.767,2.484-.74,3.277-2.009-1.56-.053-2.167-.846-1.507-2.22a4.669,4.669,0,0,1-5.021-1.19,10.529,10.529,0,0,1,4.466.159c-1.665-2.7,1.745-1.533,3.621-3.41.872,2.643,4.52,1.242,5.657-1,.845,1.057,1.744,2.061,2.7,3.066,1.295-1.269,3.832-4.229,1.85-5.471-1.613-.978-2.009-1.4.449-2.881-.661,3.251,4.493.343,5.6-1.533-3.119-.132.238-3.621-2.22-4.441,2.881-2.59,3.938.45,3.885,2.22,1.111-3.911,2.617.529,4.362-2.563,1.189-2.141-2.274-2.564-3.489-3.251a6.452,6.452,0,0,0,3.515-3.41,7.073,7.073,0,0,1,3.991,3.753c1.506-2.273,2.22-2.273,2.194,0,2.061-3.119-3.225-3.224-1.322-6.211,1.163-1.8,1.269-4.652,3.489-5.365-1.533-3.278-3.357-.555-6.475-.133-3.146.45-3.516-2.8-5.313-3.964,2.511.713,5.471,1.691,7.083,3.409a20.474,20.474,0,0,1,4.917-5.365c2.061-1.427,4.73-1.322,2.933-3.515-1.454,2.563-4.149,1.427-3.726-.688,4.493.4,2.193-4.493-1.4-3.224a3.1,3.1,0,0,0-.212-3.41c1.454.661,3.145-.1,4.335-1.374a4.268,4.268,0,0,0,1.771,3.409,9.655,9.655,0,0,1,2.855-2.378c.369,1.823-1.164,3.7-3.463,4.44,6.449,1.507,6.185-3.621,4.652-6.476,2.326-.581,4.652-2.431,4.228-4.44,5.419,1.031-.29-3.2.133-4.44.978,1.03,2.009,2.061,3.04,3.065-.45-2.405,1.876,1.3,2.3-2.22.212-1.638.475-2.748,2.722-3.568-3.065-1.639,1.163-6.132,2.617-8.59.865-1.5-.475-2.087-1.976-2.657,4.385.941,9.454-5.625,6.416-5.986a5.02,5.02,0,0,0,2.723-1.876c2.352.951,1.586,3.938,3.858,4.942-.158-2.59,1.93-2.511,3.992-3.779,2.273-1.428-.582-4.361-.9-5.524-.687-2.432-2.722-.793-4.784-1.613-1.454-.555-1.691-2.484-2.749-3.409,2.221.951,5.472,3.991,8.881,2.431,2.749-1.242,1.11-3.753-1-3.621,1.031-1.3,1.982-1.4,2.828-.343.317-2.273-2.881-4.361-5.551-3.912a14.221,14.221,0,0,0,3.093-3.753c.528,1.163.978,3.171,1.216,0-.053,1.348.793,2.246,2.59,1.876a17,17,0,0,0,.423-3.409c.978.925.238,2.986,1.427,3.779,2.115,1.428,1.454-4.334,1.427-4.361-.687-1.744,2.088-3.594-.106-4.784-1.955-1.057-2.986,1.639-2.141,2.643-1.691-1.718-4.625.37-6.29,1.877a3.817,3.817,0,0,1-1.083-1.718c1.453-.978,2.933-.555,4.387-1.348a19.438,19.438,0,0,0,2.67-2.405c2.088-1.613,3.567-3.146,6.184-4.1-3.2-.687-8.695-1.163-10.44-3.357-1.4-1.876-2.088-4.044-4.916-4.81-4.07-1.137-8.907,3.674-13.374,3.066a12.556,12.556,0,0,1,2.115,1.189c-3.992.079-2.327-4.229-4.336-5.815-1.083-.845-7.189,2.564-8.695,3.093,2.352-1.322,4.731-3.093,7.295-3.859,3.092-.9,3.674,1.11,6.105.978,1.454-.08,2.432-2.088,2.934-2.934,1.084-1.85,3.357-2.405,5.445-3.463,3.119-1.612,5.894-3.964,9.383-4.228.9-.08,3.911.422,4.519-.9,1.322-2.855-2.537-7.559-4.7-8.749-3.912-2.141-6.66-5.947-10.969-7.612-1.982-.766-4.467-1.031-6.29-1.982-1.137-.555.211-1.612-.238-2.485-.74-1.374-2.987-2.141-4.969-2.22-2.273-.106-2.67,1.4-4.758,2.115-5.233,1.744-7.374-2.379-9.885-4.229,3.991,1.771,1.242-3.674-1.48-2.908a17.08,17.08,0,0,0,1.586,1.533c-.9-.978-2.115-.925-3.674.185,1.189-1.189,1.3-2.59.37-3.409,1.929,1.268,4.573,1.136,5.524,3.3.766,1.744,1.321,3.541,3.171,4.625,3.727,2.141,8.406-3.78,13.164-2.062,4.73,1.745,2.959,5.6,9.911,4.044,5.18-1.136,8.484,2.538,12.4,3.568,3.594-3.832-2.035-6.713-4.572-8.035-1.534-.792-3.49-.792-4.044-2.378-.741-2.062,1.321-3.7-1.375-4.916-3.119-1.375-10.546-1.983-9.171-6.291,1.189-3.647-.45-7.269-2.643-9.674-3.2-3.515-4.626-8.458-6.5-12.713-1.243-2.8-.688-7.9-4.071-9.436-4.282-1.956-9.2-3.013-12.607-5.868-1.745-1.427-5.1-4.757-8.908-2.431.185-3.278-.9-5.445,3.013-8.775,2.379-1.983,5.366-6.872,6.37-9.172,6.238,1.4,7.057-7.136,13.163-7.85a3.858,3.858,0,0,1-3.489-5.312c2.3-.291,4.784,2.458,3.647-.846,1.93,1.031-.687,3.859,1.9,4.44.846.185,4.467-1.031,5.075-1.85,1.295-1.85-.529-2.881.74-4.652,1.533-2.088,3.965-1.982,3.965-.185,2.934-2.326,1.9-5.63-2.194-3.409.476-3.146,3.859-1.084,5.841-1.348,2.776-.4,8.591-3.727,11.524-4.969-5.841,3.621,3.383-.635,4.758-1.4,2.379-1.295,4.652-2.035,3.832.528A34.2,34.2,0,0,0,918.8,8.619c.634,1.85-.423,4.731,3.911,3.489,2.644-.767,3.622-2.326,2.432-3.331-2.987-2.564,4.282-3.436,1.295-6.5C927.364,1.932,928.29,1.588,929.214,1.271ZM743.881,311.963c0,1.185-.071.295-.373.3A2.761,2.761,0,0,0,743.881,311.963ZM887.7,192.945c-.93-.406-1.695-.905-1.73-1.742A5.4,5.4,0,0,0,887.7,192.945ZM684.173,358.828c-.784-1.066-4.659-2.663-4.676-1.217-1.79-2.413-6.508-.056-8.169,1.72-.978-2.908-6.74-2.511-9.383-.846.343.634.714,1.269,1.084,1.876-2.4.688-3.463-1.9-5.6-1.374-2.775.714-1.956,3.859.132,4.282-5,1.163-8.722,5.207-12.66,8.008-1.216,1.4-.105,6.978-.027,8.538.133,2.537-.608,6.343,1.27,8.352,2.3,2.431,6.871,1.982,9.752,3.647,2.749,1.586,7.428,1.877,10.863,1.8-.819-3.357,4.494-5.34,5.63-3.067-.766-1.559,6.423-6.184,7.612-7.057,1.692-1.242,4.678-8.167,2.485-8.96,2.7-1.189,6.132-7.03,5.947-9.383,4.52,3.278,2.881-5.259,2.378-6.925C690.014,355.472,681.53,352.538,684.173,358.828Zm72.236-48.262c-.185.9.238,1.453,1.216,1.718A2.078,2.078,0,0,0,756.409,310.566ZM676.482,337.5c2.22-.37,4.546-1.163,5.656.872C684.253,334.8,678.253,334.776,676.482,337.5Zm193.157-93.09c-.767.159-1.533.344-2.273.5,1.057,3.119,2.987-1.189,2.881-2.537a7.98,7.98,0,0,0-2.3.5C868.5,243.378,869.084,243.907,869.639,244.409Zm48.924-97.187c.423-1.559-.555-1.982-2.379-1.03Q916.7,147.421,918.563,147.222ZM915.074,158.3c.608.159,1.216.344,1.824.5C917.691,157.425,917.083,157.266,915.074,158.3ZM898.5,115.664c3.251,1.454,8.458,9.621,14.511,5.63C911.083,119.391,903.127,112.756,898.5,115.664ZM741.159,297.773c.105.555,2.352,3.912,3.726,2.907C744.013,299.438,743.088,297.958,741.159,297.773Zm8.3,14.511c1.85.079,4.149-1.031,4.255-2.908C752.286,310.09,749.7,310.486,749.458,312.284Zm112.7-77.945a21.558,21.558,0,0,1-3.674-1.533C858.829,234.18,860.2,235.158,862.159,234.339Zm-26.642,30.025c-.846,1.4-.449,2.247,1.348,2.035C837.446,265.237,837.076,264.206,835.517,264.364Zm78.288-113.732c.185.555.37,1.137.529,1.691,2.273-.237,3.912.926,6.343,0C920.122,150.473,916.686,148.808,913.805,150.632ZM820.16,281.571c.45.4.9.793,1.348,1.216C824.575,280.381,820.768,279.377,820.16,281.571Zm77.39-90.209c.053.291.08.582.132.872C901.356,191.388,899.4,187.715,897.55,191.362ZM744.647,302.9c-.4-.582-.819-1.137-1.242-1.719C743.405,302.213,743.352,302.583,744.647,302.9Z"/><path class="d" d="M550.036,719.8c-1.215-4.467-6.74-6.423-9.065-10.123-3.04-4.758.343-10.52-1.295-15.278-1.111-3.171-1.8-3.436-.952-6.951a49.159,49.159,0,0,0,1.242-7.824c.529-6.581-1.612-12.422-4.652-18.158-2.933-5.709-7.559-9.33-12.845-13.268-2.115-1.586-2.617-3.991-4.123-5.947-1.507-2.009-3.727-2.22-6.132-2.907-.027,1.85-3.384,9.383-5.366,10.07-2.484.846-3.3-3.727-5.947-3.357-3.172.45-3.991,4.493-6.713,5.049-6.106,1.268-2.723-4.7-1.956-6.82,1.612-4.361-3.119-3.911-4.784-6.131-.872-1.137-.872-2.987-2.617-3.41-1.85-.476-3.542.158-5.313-.793-1.4-.767-3.911-6.211-5.286-3.621-.766,1.454-.713,3.806-1.85,5.075,1.9,4.625,5.207,8.775,4.916,13.982-.184,3.594-1.215,12.449,1.19,15.25,2.8,3.225,5.233,7.85,3.383,12.159-.952,2.193,2.273,8.51,5.656,8.061-5.762,1.665-.793,2.8.08,4.863,1.8,4.256,7,7.163,8.986,11.366.634,1.347,2.062,4.255.9,5.682-1.058,1.295-1.454,1.612.4,2.8,1.93,1.216,2.987,3.2,5.418,3.806,1.586.37,2.908.5,3.7,1.929,1.189,2.062,4.652,5.128,6.846,6.555,2.166,1.427,5.365,1.4,7.321,3.04,1.216,1.03,2.193,2.22,3.462,3.224,4.969,3.833,13.427,5.577,15.409,11.815,2.036-.872,7.322-4.044,9.516-2.617,2.167,1.428.793-3.356.528-3.859a3.8,3.8,0,0,0,3.569,2.062c-4.229,2.59,4.757,6.528,2.933-.661C555.243,729.522,551.464,725.082,550.036,719.8Zm277.287-38.008a30.734,30.734,0,0,1,4.414-.159c-1.4-.872-2.881-1.85-4.731-1.718C827.112,680.546,827.218,681.18,827.323,681.788ZM698.71,715.91c.159,1.163.37,1.745,1.85,1.877-.951-2.379.5-5.419-2.061-7.163C698.314,712.4,698.9,714.113,698.71,715.91Zm78.183-58.676c-.291.581-.581,1.136-.872,1.718C777.924,659.586,778.215,659,776.893,657.234Zm36.237-39.885c-1.507.212-2.617,1.11-2.458,2.538A4.794,4.794,0,0,0,813.13,617.349Zm2.273.344a2.657,2.657,0,0,0-.027,3.224C819.552,619.649,818.178,615.235,815.4,617.693Zm29.734,54.21a25.812,25.812,0,0,0-3.779-.5A3.053,3.053,0,0,0,845.137,671.9ZM585.11,705.338a9.539,9.539,0,0,1,.291,3.568C587.3,707.955,587.489,705.761,585.11,705.338Zm62.589,2.379a1.744,1.744,0,0,0,2.114,0,4.924,4.924,0,0,0-.925-1.718C648.492,706.58,648.1,707.135,647.7,707.717ZM466.885,634.741a12.759,12.759,0,0,1-3.357,2.22C465.378,640.476,469.9,636.988,466.885,634.741Zm6.555,23.365c.105,3.172,2.88-.476,2.563-2.564C473.73,654.617,473.387,656.6,473.44,658.106Zm81.3,50.3a2,2,0,0,0-1.189,1.876C555.745,710.624,556.142,710.016,554.741,708.4Zm297.48-51.673c-.819-1.718-4.519-5.629-7-3.409-.158-2.617-3.859-7.11-7.375-5.181-1.638.9-5.867,4.441-6.052.74,2.167-.687,6.37-3.33,2.167-4.942-2.22-.872-3.224,1.189-4.889,2.009-1.746.884-3.629.1-5.531.563,2.649-1.006,3-1.928,2.359-4.739-.608-2.7,2.405-1.957,2.775-3.939.581-2.96-4.467-4.044-4.625-6.5-.642,2.8-2.2,1.415-3.694-.863a2.816,2.816,0,0,0,2.055-.511c-.683.152-1.369.327-2.076.481-1.7-2.6-3.323-6.347-3.422-6.375-2.669-.423-5.206,7.03-7.453,8.273-1.084-2.987,2.326-5.868-.158-8.7-3.648,2.96-3.648,7.612-6.555,10.837-1.322,1.453-2.432,3.594-3.675,4.863-1.03,1.031-2.008.238-2.959,1.876-1.666,2.855-2.406,6.053-4.2,8.881-1.163,1.824-7.454,6.5-6.687,2.194-1.9,2.194-7.744,6-2.168,7.982,3.7,1.295-1.268,4.573-2.7,5.551-1.506,1.057-6.078-1.11-3.753,2.563a15.862,15.862,0,0,1,2.247,9.991c-6.159-1.242-5-7.268-5.789-11.576-2.722,2.616-7.057,4.387-3.7,8.8,1.48,1.929.238,8.669-3.41,8.537-2.061-.079-6.713-4.757-7.532-6.422-1.374-2.855-2.115-4.679-6.079-4.784-.635,6.792-3.991,11.973-9.7,16.466-4.467,3.542-4.811,9.912-9.807,13-5.814,3.6-15.567,4.863-22.36,5.815-4.282.608-14.8,6.132-8.035,10.757-1.956-.106-3.7-1-5.683-1.031-.581,1.851,1.163,3.727-.713,5.287,1.321-.106,2.669-.212,3.991-.344-1.665,1.427-3.013.5-3.647,2.881a16.841,16.841,0,0,1-1.084,2.907c-.661,1.663-.685,3.265.655,4.437-1.837-.973-3.359.72-2.823,2.726.9,3.463,5,1.427,6.82,3.753-2.7-.211-5.577-.423-7.428-2.378-2.035-2.141-3.541-.37-5.947-1.19-1.559-.5-5.814-1.374-5.233-3.383.212-.661-2.4-.819-2.431-2.4.079,5.6-14.564.449-13.771-5.63-.475,2.537-3.621,3.78-.159,5.524,1.692.846,1.137,4.467,1.93,5.921.846,1.612,2.59,1.506,3.885,2.59,1.322,1.136,1.85,2.749,3.2,3.859,1.084.9,3.6,3.621,4.731,3.885,3.728.872,3.78,4.229,8.432,2.273,3.383-1.454,6-3.3,9.938-3.092,2.273.132,4.07,1.638,6.238,1.348,1.85-.212,3.7-.45,5.55-.582-.264.027,6.106-3.33,5.947-2.96a34.543,34.543,0,0,1,2.538-5.63c2.352-3.621,14.933-4.017,16.809-1,1.4,2.22,6.846,3.912,9.516,4.282,4.044.581,4.89-1.8,7.956-3.278,2.246-1.057,4.493.952,6.793-.317,3.356-1.877,3.33.106,6.5-.026-.66-3.278,7.348-10.441,5.26-12.555-3.6-3.648,4.811-8.326,7.929-9.277-1.48-1.718-4.651-10.335.9-10.441,5.128-.105,3.833-1.982,4.969-6,.714-2.511,1.824-2.828,1-5.5a12.317,12.317,0,0,1,.079-5.551,20.464,20.464,0,0,1,2.247-6.951c.951-1.533,2.67-2.114,3.172-3.938,1.507.5,3.436,3.119,4.81,1.242,1.216-1.665,1.665-.291,3.331-.687,2.246-.555,5.154,3.225,5.576-.9,3.965,3.542,10.335-.634,14.828,2.035,1.507.9,4.361,3.569,6.5,2.274,1.375-.846.5-3.41.979-4.626,5,3.833,7.506,2.458,13.5,2.035,1.877-.132,4.52.238,5.736-1.48,1.137-1.586-.317-3.172-2.22-2.114.581-2.881-5.524-3.886-6.581-6.264-2.564-6.027,6.5-3.146,8.907-2.961,3.462.238,13.294-2.881,13.453-6.819C859.437,656.2,854.257,654.432,852.221,656.731Zm10.626,9.886a42.321,42.321,0,0,1,.026,5.471A5.345,5.345,0,0,0,862.847,666.617Z"/><path class="f" d="M868.714,532.929l1.983,1.031C871.463,532.136,870.8,531.819,868.714,532.929Zm7.163-49.452c.555,1.638,2.352,2.669,3.806,3.594C880.027,484.957,878.071,483.556,875.877,483.477Zm41.285,2.246c2.643,2.458,7.824,5.842,8.167,9.515.132,1.243,2.352,3.013,3.145.873a5.656,5.656,0,0,0-.661-3.278c-.211-.555-2.643-3.991-1.162-3.568-2.882-1.718-1.639-5.366-3.516-7.665,4.229-.581,7.586,3.859,9.251,6.37,2.3,3.436,6.872,3.647,8.669,7.85.477,1.11-1.189,3.277.582,3.621,1.929.37,3.436,1.612,5.154,2.379,1.374.634,2.4,2.405,4.149,1.638,1.269-.555,3.251-2.193,4.732-1.9-.582,2.088-5.022,3.013-3.436,5.472.291.423,3.3,5,4.546,2.748,1.9-3.515,1.8-15.673-6.132-11.127-.661-1.427.317-2.405.106-3.806-.291-1.8-2.855-4.361-4.467-5.233-4.282-2.326,5.63-4.626,7.982-3.41-.132-2.511-4.573-3.515-6.872-3.7-3.885-.317-4.2-3.278-7.4-3.806-1.11,2.378,3.489,5.841-.872,7.162-3.172.978-3.277-5.55-4.387-7.585-2.247-4.124-13.348-7.824-14.062-.08a16.75,16.75,0,0,0-1.268-2.061c-2.855,2.141,2.273,3.489.607,4.969-2.8,2.537-7.533-.9-9.171-2.564-1.454-1.506-7.216-12.185-1.956-12.449-4.387-2.934-8.009-11.365-5-16.2,2.062-3.3.688-6.317,2.538-9.224,2.3-3.595,7.771-3.833,10.969-6.476-.476.978-.978,1.956-1.454,2.907,2.722-2.326,2.459-5.074,4.018-7.85,2.379-4.2,5.365-8.722,5.259-13.294-2.88,1.11-1.083-2.141-1.744-3.251-1.9-2.987-4.678-3.093-5.418-7.242-.767-4.256-.08-7.533,2.616-11.524,1.428-2.088-.634-7.771-3.277-4.731-1.057,1.189-1.665,3.832-3.912,3.462-1.348-.211-4.123-1.639-5.6-.238-.475-1.427-1.876-2.432-3.2-3.224-2.643-1.613-6.026-4.018-9.673-2.987-1.56.423-3.066-.291-4.546-.4-1.348-.105-.582,1.666-1.9,1.666-3.727,0-1.692,1.8-2.088,3.753-.74,3.462-2.7,7.718-3.886,11.233-2.141,6.422,2.353,12.079-.317,18.872-2.168,5.524-.29,9.647-.343,14.8-.053,6.37-9.569-2.141-9.885-4.837-2.617,1.057-2.776,3.383-2.247,5.286-1.507,3.78,2.008,3.278,2.061,5.419.08,3.277-.344,7.506,1,10.387a18.732,18.732,0,0,1,1.878,8.326c.131,1.876,3.012,6.026,3.065,1.771,3.436,1.215.661,7.4,4.679,8.51,5.92,1.613,1.9-5.365,2.325-7.638,1.481.5,13.718,4.176,8.432,7.3a58.336,58.336,0,0,0-5.709,4.044c-2.987,2.22-.74,6.607-.793,9.462,1.639-.185,2.379-1.031,1.824-2.4,3.462.053,4.836,1.771,3.859,4.784,1.533-3.542,3.673-.423,2.722,1.374,1.983-.291,4.758.793,6.555-.661,1.533-1.242,2.167-3.119,3.859-4.176.555-.343,3.673-2.3,4.308-1.8C912.061,482.974,915.179,483.847,917.162,485.723ZM879.736,518.18c-2.062-1.083-3.489-.608-5.577-2.3a9.7,9.7,0,0,0-1.745-1.374c-4.07,5.682,4.177,6.66,8.59,6.66A2.811,2.811,0,0,0,879.736,518.18Zm37.637-53.972c.582.45,1.163.9,1.745,1.375C919.911,463.918,919.3,463.468,917.373,464.208ZM874.133,522.7c-.873.159-1.719.344-2.565.5.212,2.115,3.04,2.3,2.538,4.626C876.009,526.427,874.5,524.1,874.133,522.7Zm-.08,137.15c-2.088,1.295-5.339,1.322-3.251,3.859,1.243-.581,8.379-3.938,8.114-4.7C877.912,656.176,875.745,658.846,874.053,659.85ZM900.986,381c.714-.053,1.428-.132,2.141-.185C902.1,380.4,901.647,380.079,900.986,381Zm16.969,99.248c-.344-2.088-3.278-3.515-5.286-4.1C913.779,478.085,916,479.089,917.955,480.252Zm4.572-14.008a4.444,4.444,0,0,0-1.956.185C921.232,466.376,921.866,466.323,922.527,466.244Zm-12.105-6.476c.344,2.115,1.11,6.106,3.568,7C915.417,464.208,915.84,456.041,910.422,459.768Zm-5.868-87.116c.925-1.93-1.269-3.278-3.251-2.22A4.718,4.718,0,0,0,904.554,372.652Zm8.987,5.286a4.171,4.171,0,0,0-2.009,3.568A3.557,3.557,0,0,0,913.541,377.938Zm1.348-30.369c-1.4.634-1.956,1.533-1.718,2.722A7.306,7.306,0,0,0,914.889,347.569Zm-35.312,177.7a16.406,16.406,0,0,0-.158-3.6A2.615,2.615,0,0,0,879.577,525.264Zm113.547,42.448a4.236,4.236,0,0,0,.687,3.6C995.212,570.091,994.419,568.478,993.124,567.712Zm-6.739-1.877c2.827.37,2.458-3.251,2.272-4.652-.158-1.453-1.056-2.748-1.136-4.2-.106-1.348,1.031-2.4.634-3.753-3.938,1.427-1.268,4.282-3.647,6.475,1.48.212,2.379,1.111,1.771,2.564C987.706,563.192,987.812,564.646,986.385,565.835Zm-19.982-45.7c1.744,1.375,6.951,6.9,9.436,5.974-1.031,1.691-1.217,3.938-3.648,4.6a9.2,9.2,0,0,1,2.484,3.066c-1.8-1.983-3.3.555-5.074,1.4-2.723,1.348-6.317-2.353-7.216-4.124-2.194,2.115.212,12.211,2.96,13.295.053-4.572,5.366,1.348,5.208,3.674-.371,5.947-2.141,10.519,4.572,13.374-.079-1.8-.925-3.436-.714-5.26,1.005,1.11,4.89,1.19,5.471-.687.344-1.057-1.9-6-2.484-7.057-1.322-2.458-1.877-2.141-1.744-5.392.106-2.114,1.03-5.445-.846-7,1.639-.37,5.63,3.542,5.683,3.515,1.982-1.85,8.3.5,9.964,1.428-1.269-1.507-2.009-3.622-4.255-4.256,3.277-2.062-2.036-8.114-1.983-10.546.027-2.564,1.586-4.863.291-7.03-.846-1.4,2.907-1,.053-2.644-1.559-.872-3.753-.211-3.3-2.563.555-2.987-2.326-3.093-4.679-3.542a10.061,10.061,0,0,0-6.211.238c-3.25.9-6.422-1.613-9.541.343C961.883,514.559,963.258,517.652,966.4,520.136Zm10.757,40.255a11.034,11.034,0,0,0,1.48,1.876c.661.555,1.322,1.11,1.956,1.692C980.358,562.346,979.8,559.651,977.16,560.391Zm22.84,27.5V582.86a4.963,4.963,0,0,1-1.166-1.668c-.344-.925,1.136-5.366-.846-4.467-2.511,1.11-2.908.317-4.1-1.348-1.4-1.982.264-3.119-3.066-4.07-3.674-1-4.123-4.018-7.321-5.287-2.247,3.833.846,8.908,1.9,12.529.211.845,1.348,3.912-.37,4.334-2.247.582-5.26.08-6.053-2.035-2.168,5.022-.291,5.419-5.313,2.141-4.757-3.066-1.321,9.066-5.471,9.594-2.643.318-2.96-2.537-5.471-1.559-2.617,1.031-2.194,5.18-3.146,7.11-1.136,2.326-4.836,1.295-6.845,2.67-1.137.792-3.172,2.669-4.678,2.748-1.479.05,1.613-1.9,1.759-1.991,2.048-1.183,2.522-1.847,2.179-4.061-.264-1.745-2.326-10.123-5.867-6.08-.4-1.4-1.217-3.171-3.226-3.065.767,4.678-5.656,2.881-7.4,5.444-2.035,3.014-.661,5.762-4.969,7s-10.52.158-12.872,4.969c-1,2.061-.634,4.44-1.057,6.581-.529,2.828-2.379,5.656-3.859,8.22-1.348,4.837,5.92,6.845,6.872,1.216.344-2.035,1.744-7.718,3.542-8.352,1.453-.476,2.987-7.956,6-5.762,2.194,1.585,1.005,5,2.7,6.766.714-3.013,1.824-1.533,2.67,0,.9-1.85.449-4.414,3.066-5.286,1.057,1.242.74,2.722-.661,3.753,2.617.079,4.07,2.987,6.714,2.564-.741-1.031-1.612-2.432-1.454-3.753.079-.767,1.93-.661,2.194-1.375.687-1.85-1.612-1.4,1.162-3.2,1.719-1.11,3.2.819,4.388,1.533,4.044,2.352,7.8,3.013,8.854,7.982.556,2.722-3.726,5.26-4.255,8.141-.555,2.907.925,6.9,1.4,9.753.74,4.414,4.837,7.057,8.907,9.013,1.877.872,8.458,4.863,10.678,3.224,1.771-1.321,1.11-4.44,4.256-4.281.317,0-1.56,13.162,3.119,10.387,3.277-1.93,6.475-8.564,6.237-11.788-.343-4.546-4.07-6.449-5.788-10.123-1.031-2.194,5.92-14.59,7.982-13.665,1.613.687,4.758,7.718,5.339,9.409.582,1.665.053,3.41.106,5.128.053,2.511,2.194,4.176,2.431,6.634.109-1.479.5-3.125.8-4.779v-5.509a5.584,5.584,0,0,0-1.246-2.161,2.934,2.934,0,0,1,1.246-.231V592.747c-1.517-.848-2.921-1.621-2.8-2.516C997.337,589.25,998.826,588.63,1000,587.892ZM873.842,551.008c.106-2.987-4.573-.212-4.758,1.691C871.542,553.624,871.437,550.69,873.842,551.008Zm122.665,16.6c3.12-.634,1.164-5-.845-5.339C994.6,563.4,993.415,568.241,996.507,567.606ZM894.828,643.014c-2.776.449-2.617,3.542-1.956,3.224,1.823-.845,6.449-1.242,7.11.952C905.374,644.837,897.365,642.591,894.828,643.014Zm-9.753-6.4a2.65,2.65,0,0,0,0,2.723C886.079,638.362,886.079,637.437,885.075,636.617Zm14.7-143.519c-2.406-2.406-16.335-4.732-19.242-1.771.29.978,4.176,3.991,5.1,4.7,3.938,3.014,2.431,6.952,5.18,10.123,1.189,1.4,8.67,16.44,11.762,7.665.661-1.85,2.141-3.409,2.749-5.286.634-1.824-1.11-3.462-.9-5.312C904.951,498.807,902.783,496.084,899.771,493.1Zm46.544,87.75c3.3-.158,2.115-2.854.872-4.255C945.285,577.412,943.963,579.87,946.315,580.848Zm8.828-29.735c1.137-4.731.027-9.383.767-14.087-2.723.475-4.362,7.876-5.049,9.673-2.009,5.445-6.422,10.1-8.352,15.568,0,3.568-1.48,7.031-2.114,10.573,5.365,1.268,5.048-10.309,7.533-12.608C951.02,557.377,954.191,555.078,955.143,551.113Zm12.37,27.356a3.793,3.793,0,0,0,2.854,2.723C971.4,579.421,969.918,576.646,967.513,578.469ZM931.408,618.01c7.242-2.485-5.418-4.044,0,0Zm34.783-50.3c-.819-3.41-.211-10.149-7.268-8.484-2.485.581-10.493,6.951-7.322,8.828C950.7,574.69,964.526,567.157,966.191,567.712Zm-1.268-35.47c3.33.449,1.718-6.582-2.723-4.414C962.914,529.361,963.178,531.317,964.923,532.242Zm-3.912,16.2c.053.634.106,1.242.185,1.876C963.205,549.369,963.152,548.735,961.011,548.444Zm-9.33,21.488c-1.481-.106-2.009.45-2.036,1.718C951.469,571.545,952.156,570.963,951.681,569.932Zm1.955-12.607,1.719-1.718C953.584,555.633,953.769,556.082,953.636,557.325Zm-28.492-3.41c1.8-.714,6.4-5.418,2.855-6.211C925.329,547.1,923.955,552.646,925.144,553.915Zm6.766,22.678c1.19,1.321.371,3.462,1.8,4.678,1.983,1.665,4.89-.317,6.053-1.982,2.194-3.093-1.268-5.181-1.982-7.9-1.374-4.969,1.507-12.29,3.832-17.127,1.8-3.7,6.767-8.643,1.348-11.339a7.949,7.949,0,0,0-6.29-.37c-3.6,1.374-2.484,4.044-3.674,6.581-.74,1.612-2.59,2.141-2.167,4.1.475,2.141,1.242,4.493,0,6.766-1.85,3.383-8.643,1.216-8.881,5.022-.132,3.172,2.406,6.37,4.229,8.828C927.893,575.033,930.509,574.981,931.91,576.593Zm49.532,80.3a2.484,2.484,0,0,0,1.9.185A1.423,1.423,0,0,0,981.442,656.89ZM813.42,601.834a4.872,4.872,0,0,0,.4,5.445C815.218,605.429,815.376,603.235,813.42,601.834Zm177.167,24.211c.74-1.85.291-3.674,0-5.471C987.23,621.182,989.873,624.116,990.587,626.045Zm-126.578-92.27c-2.537,1.823-.5,8.722-3.568,5.973.661,1.427,2.432,5.418,2.432,6.978-1.851-.952-4.017-2.009-4.494-4.07-.29,2.14.767,3.885,1.269,5.867s-3.013,8.088-3.727,3.833c-.343,1.321-1.215,1.77-2.59,2.088-1.057.264-.793,2.907-1.163,3.541-.449.82-2.194-.238-2.722.529-.793,1.189.872,2.035-.4,3.41-.026-4.018-2.458.607-3.224,1.691a28.526,28.526,0,0,1-4.1,5.181c-2.643,2.458-4.149,5.788-7.189,7.929-1.216.846-2.511.449-3.7,1.216-1.375.872-1.56,2.4-2.96,3.119-3.991,2.008-7.613,6.449-9.331,10.2-1.137,1.639-.925,3.515-1.506,5.26,5.576-5.736,13.109-7.639,18.157-14.141,1.877-2.431,17.075-10.942,12.08-14.828,3.066.688,1.057-1.242,1.374-2.907.37-2.062,4.1-2.326,5.735-2.511,2.776-.343,3.41-1.295,4.124-3.542,1-3.119,3.462-2.352,5.894-3.674,5.127-2.775,1.929-5.524.291-8.722C862.714,542.338,867.26,537.052,864.009,533.775Zm-21.673,89.363a10.278,10.278,0,0,0,2.194,1.189C844.9,622.451,844.16,622.054,842.336,623.138Zm134.19-113.733c-.37.053-.766.106-1.163.159C975.839,509.987,976.235,509.934,976.526,509.405Zm-36.951-.185c.5,1.639-.608,5.947.079,6.9,1.692,2.352-.66,2.484-1.162,5.048-.133.635-.264,1.242-.423,1.877,2.907-1.639,5.709-8.115,8.564-4.731,1.136,1.374,2.431,2.643,3.436,4.123,1.268,1.85,4.308,1.956,5.629,3.832,3.569-5.074-3.832-8.167-6.132-10.942a25.48,25.48,0,0,0-3.938-3.6A22.051,22.051,0,0,0,939.575,509.22Zm7.216,31.9c9.172-3.25-.608-6.66,0,0Zm4.044-26.959c-.106-2.3-.476-5.1-2.881-6.291a2.176,2.176,0,0,0,.4,3.066A9.207,9.207,0,0,0,950.835,514.163Zm-16.229-16.2c-2.378,3.013,6.423,7.083,7.718,9.039C940.5,503.828,938.492,499.52,934.606,497.961Zm20.933-1.692c.45-1.163-.158-1.4-1.85-.687C954.324,495.82,954.932,496.031,955.539,496.269Zm2.644-17.048c-2.3,3.489-1.665,8.511.978,10.916C964.368,487.124,964.473,480.331,958.183,479.221Zm-.819,17.735c.687.106,1.373.212,2.061.344A2.085,2.085,0,0,0,957.364,496.956Zm-32.008,13.982a15.68,15.68,0,0,0-2.089,1.348,44.354,44.354,0,0,1,4.362,3.6C929.716,513.634,928.448,510.912,925.356,510.938ZM910.819,491.67c-.529,3.833,5.814,6.687,6.66,1.216C917.928,490.111,912.193,488.578,910.819,491.67Zm1.586,152.269a8.188,8.188,0,0,0-2.776-1.19C910.105,644.071,911,644.467,912.405,643.939Zm-2.141-12.608a9.539,9.539,0,0,0,1.585,1.692c.238,2.061,2.353,3.224,4.573,2.352,2.273-.925,2.273-3.066,3.78-4.572-1.983.158-3.067-1.216-4.837-1.533C913.515,628.952,911.955,630.988,910.264,631.331Zm4.678-112.04c.9-3.516,1.638-7.031,2.88-10.441.688-1.956-4.36-.713-2.827,2.088C914.361,514,912.616,516.621,914.942,519.291Zm4.863-10.071c.132.582.264,1.137.4,1.718C921.814,511.15,921.708,510.6,919.805,509.22Zm2.907,39.224c2.538,0,7.639-3.278,7.163-5.524-.4-1.956,7.771-2.7,7.031-5.5-1-3.7,2.564-8.8-4.625-4.493,1.823-1.586-.371-3.753-2.379-3.357-1.877.344-3.3,2.4-4.679.925-1.559-1.665-2.59-3.568-4.889-4.6-2.168-.951-5.049-1.348-6.317-3.356a7.259,7.259,0,0,0-2.326,3.409c6.079.978,4.07,5.26,3.462,9.515-.449,3.066-.158,5.26-1.453,8.326-1.348,3.2.369,6.264-1.269,9.436C915.893,553.889,918.827,548.444,922.712,548.444Z"/><path class="e" d="M550.909,553.228a4.813,4.813,0,0,1-3.622,1.691c2.406,1.771,2.353,4.811,4.071,7C550.7,559.016,553.816,555.554,550.909,553.228Zm-20.8-19.8a7.9,7.9,0,0,0,1.348,1.877c-.053-.608-.132-1.243-.211-1.877Zm4.23,13.321a15.724,15.724,0,0,0,1.559,1.692C536.98,547.017,536.451,546.435,534.337,546.752Zm88.992-51.2c1.956-5.1-.793-6.767-2.272-11.022-.609-1.771-1.825-3.885-2.194-5.683-.318-1.718.369-3.462-.027-5.154-.422-1.8,2.035-2.458,2.749-3.859.661-1.268.5-2.775.634-4.1-3.224,3.965-11.206,9.225-16.36,5.63-1.19-.819-2.749-2.986-4.52-2.854-1.3.105-1.269,2.035-2.855,2.141-1.242.1-2.563-.4-3.039,1.057-.555,1.771-1.586.238-2.907.978-3.12,1.824,1.506,4.229,1.585,6.185.132,3.541-5.207,3.409-6.528,1.083-2.7-4.731-12.793.265-12.449-6.872-3.04,4.546-5.551-3.277-11.524-1.189-3.331,1.163-5.577-.449-8.722.5-2.379.714-5.947,1.322-7.982.106-4.2-2.485-14.855.238-17.445,4.731-2.379,4.1-5.868,12.238-12.237,12.026a11.88,11.88,0,0,1,.264,5.286,56.265,56.265,0,0,0,8.061,16.837c1.718,2.511-.317,6.449.661,9.277.872,2.511,3.41,5.1,2.643,8.009a2,2,0,0,1,2.987-1.375c-3.621.423-.872,3.515.476,4.414,1.9,1.269-.265,3.806.132,5.551.423,1.929-1.533,5.656.978,6.819,1.665.766,3.04-1.322,4.81.105.635-1.4,1.559-7.136,4.414-4.942,1.586,1.242,3.383,5.92,1.348,7.665-1.744,1.506-4.255,1.982-1.771,4.15,1.9,1.665,5.974-.08,5.524-2.617,1.084,2.405,6.423,3.092,8.96,4.1,2.564,1.031,3.013-.212,5.26-1.005,3.066-1.057,5.26.08,8.009-2.167,2.854-2.326.634-4.837,2.854-6.713,3.3,3.118,8.722-.265,12.713-.952,2.115-.344,2.485,2.141,3.806,2.96,1.507.952,3.6.9,5.313,1.4.265-1.877-1.771-3.436.767-3.753-.159-3.145-4.573-3.277-5.789-5.445a18.553,18.553,0,0,1-1.929-6.37c-.265-2.009,2.114-2.246,3.41-3.806,1.929-2.352,7.268,1.084,9.409,1.48-1-1.982.819-4.334-.687-6.158,3.965-.846,6.686-.529,10.334-2.484,2.511-1.349,4.388-3.6,7.031-4.811,2.114-.952,2.4,2.062,3.858-.264,1.058-1.745,2.327-4.467,2.327-6.4,0-2.008-1.322-3.779-1.877-5.656C620.792,500,622.43,497.908,623.329,495.556Z"/><path class="b" d="M63.813,583.412a3.475,3.475,0,0,0-3.7-2.722C60.641,581.879,62.782,582.646,63.813,583.412ZM102.534,614.1c-.052.9-3.277-5.18-4.1-5.973,4.783,3.145-.978-3.463-1.666-4.52-2.167-3.357-2.035-7.189-3.779-10.651a2.573,2.573,0,0,1-3.965-.688c4.7.344-5.445-11.524-5.947-13.189-.555-1.823-12-14.193-14.3-12.4,2.432.529,3.7,2.643,5.365,4.1-2.537-1.348-7.056-7.216-10.36-3.568,1.348,1.929,4.017,2.088,5.761,3.568.423-2.088,6.5,1.295,7.692,2.907-1.11-.766-7.348-2.088-9.092-2.035,1.242,1.586,0,1.639-.978,2.749-1.322,1.507,1.3,4.018-.476,6.476-4.176,5.761-3.912,15.911-4.52,22.651-3.013-.793-1.453-4.335-1.453-6.317-3.145,4.123.607,9.885.9,14.167-.291,7.586,1.48,38.7,17.365,34.122,7.19-2.088,18-6.449,22.07-12.528C104.385,627.948,106.182,619.12,102.534,614.1ZM65.188,569.932c-.635-.449-1.243-.9-1.851-1.374C63.628,569.721,63.522,570.2,65.188,569.932Z"/><path class="c" d="M471.51,350.133c1.242-2.776.9-6.714,4.176-8.7,1.9-1.137,6.264.132,7-2.379-4.334,2.062-.105-4.176.582-5.313,1.163-1.876,1.3-2.907,3.78-3.806,2.087-.766,6.158-2.511,5.947-4.863,3.065,1.639-1.058,9.489,5.18,7.374,3.647-1.242,3.489.159,6.317,1.19,3.965,1.427.925-3.093.9-3.383-.423-2.379,1.427-4.1,1.453-6.291.026-2.167-1.665-4.255-2.854-5.947-1.322-1.9-2.485-3.753-2.221-6.238.053-.581,3.172-6.74,4.124-5.5s.581,2.008,3.251,1.427c4.15-.925,4.15,1.612,6.106,3.621,2.061,2.114,4.493,4.123,6.712,6.132,1.692,1.559.873,5.022,3.41,5.736a3.255,3.255,0,0,0,1.4-3.595c.265,2.114,3.119,1.665,3.3,4.07.185,2.379-1.982,5.154-1.638,7.9,1,8.062,10.572,8.405,16.73,12.079,2.009-2.009,1.718-3.859,4.916-4.943,3.806-1.3,6.264-.079,8.881,1.771,1.506,1.058,3.806,2.273,3.78,4.282,0,1.771-3.6,1.745-4.415,3.489,1.692.634,5.1.185,5.445,2.247.265,1.585,1.613,1.533,2.882,2.194,5.392,2.775,3.145,3.25-.424,7.162,3.833,1-4.466,5.154-7.242,4.784-.687-.1-7.4-1.982-8.061-.687-.661,1.216,1.983,3.33,1.137,5.445-2.3.026-4.89,2.246-1.8,3.119,5.154,1.48,10.282,5.92,14.59,8.854,1.718,1.137,10.625,1.295,9.964,4.15-.528,2.246-2.272,2.907-.369,5.048,1.4,1.559,3.805,4.044,5.761,4.07,1.983.053,2.8,3.146,3.3,4.414,1.137,2.908,3.225,5.049,5.366,7.348,1.215,1.322,5.471,7.586,7.744,7,2.194-.555,2.987,5.6,4.943,6.4,2.325.925.66,5.418,1.956,7.242.449.608,1.348,2.934,2.246,3.039,1.11.159,2.485-.9,3.515-.317,2.088,1.163,1.031,3.066,3.833,3.674,2.643.555,5.075,4.176,7.93,5.18-1.322,2.036-4.521,2.961-5.71,5.075-1.295,2.3,5.313,5.233,6.106,6.9,1.163,2.537,4.493,2.537,2.272,6.211-.66,1.084-2.219,2.273-2.457,3.515-.159,1.163,1.215,1.956,1.057,3.3-.45,3.859-1.559,4.467-5.154,5.207-3.093.634-4.255,4.2-8.432,4.255-4.017.053-4.308-4.652-6.766-4.969-1.638-.185-1,1.824-2.167,2.22a27.656,27.656,0,0,1-3.568.767c-1.375.317-5.419,2.035-4.652,3.542,1,1.956,3.753,4.2,1.321,6.449-2.986,2.722-8.537-4.916-13.109-3.463-2.591.82-6.133-3.145-3.516-4.942,1.956-1.348,5.419-2.617,5.392-5.128-.053-2.326,1.348-5.788,1-7.77-.185-1.348-2.67-1.481-2.459-2.987.212-1.4,1.745-2.643,2.512-3.859a1.914,1.914,0,0,1-2.009-.106c-.079-1.9,5.286-4.414,2.458-7.348-1.533-1.585-8.273-3.488-3.436-6.184-7.031-2.564-13.982-7-14.009-14.775C565.71,418.483,569.3,410,562.8,406.3c-6.608-3.753-7.719-12.871-15.832-14.457-1.032-.185-14.8-3.886-10.679.766-3.436.4-3.04,4.626-4.731,5.947-.661.529-4.044.608-5.551,1.665-2.3,1.639-2.854-.132-4.175-1.11-2.247-1.612-5.947-3.938-8.749-4.757-2.881-.82-3.753,4.546-7,2.669-.925,4.7-7.771,7.956-11.313,11.207-1.638,1.506-3.541.661-4.863-.74-1.506-1.586.291-4.494,1.3-6.159a11.643,11.643,0,0,0,2.141-7.136c-.026-1.692-1.507-4.573-1.057-6.026a12.8,12.8,0,0,1,2.167-2.326c1.19-1.454.159-1.48.5-2.96.688-3.225,2.168-5.1.767-8.168-1.983-4.361,1.665-11-6.978-8.96a3.044,3.044,0,0,0-2.4,1.031c-1.031,1.665-1.057.238-2.7.5-2.855.5-3.965-.475-5-2.828-1.48-3.356,4.2-7.4,2.406-9.885-.74-1.031-2.881-4.282-4.044-4.784-2.3-1-3.2,1.533-5.366,2.062-.053-.582-.079-1.163-.132-1.718"/><path class="c" d="M68.174,173.468c1.586-2.8,4.361-4.2,3.278-7.162-.688-1.877,0-2.7,1.506-4.494,1.877-2.22.185-3.832,2.7-5.973,3.489-2.987,7.692-8.907,11.788-5.894.74.528,1.322,2.828,2.987,1.876a8.316,8.316,0,0,0,3.938-6.475c2.3.819,3.357-1.692,4.943-1.242,2.722.819,6.74-.159,8.246,2.431,2.617,4.546,10.335,8.722,15.568,11.313,4.308,2.114,7.533,2.326,10.255,5.656,2.749,3.409,4.124,6.528,9.3,4.361a6.453,6.453,0,0,1,7,1.163c1.956,1.718,1.031,5.313,2.987,6.264,3.568,1.8,8.167,6.4,12.819,6.026,2.352-.158,3.991-1,5.1.661.925,1.375-2.485,2.485-.4,4.176,1.612,1.295,9.621,3.753,11.206.264.608,3.331,4.679,4.837,5.868,7.8,1.533,3.832,2.854-3.569,3.885-4.2-.317,2.088,4.7,6.793,7.11,3.859.872-1.11.872-3.2,2.908-2.247a30.7,30.7,0,0,0,5.022,1.9c2.246.661,2.907,1.956,4.73,2.881,1.613.793,3.992-.317,5.736.45,3.727,1.612,9.489-2.115,13.216-.82,3.753,1.322-1.639,10.546-1.8,13.321-.343,5.34,4.89,7.56,2.194,13.56-2.167,4.863-6.159,2.537-11.418,3.066-4.123.422-9.991,1.48-9.727-3.41-3.885,1.084-5.682,3.912-9.383,1.744-1.77-1.03-10.2-3.779-12.475-3.039-4.52,1.427-3.41-.4-5.26-2.458-2.828-3.119-5.894.793-9.647,0-2.749-.582-4.335-3.886-7.163-4.52-3.938-.872-3.251-2.22-4.361-5.128s-17.656-7.268-16.519-2.616c-2.115-.872-4.864-3.172-7.718-2.035-3.965,1.586-4.916,1.929-8.855.317-2.167-.9-5.392-1.031-6.026-3.33-.9-3.331-4.361-.9-7.163-2.538-2.616-1.506-4.572-2.934-8.035-3.251-4.652-.423-7.3-2.8-11.153-4.467-3.384-1.453-4.917-4.7-8.062-6.555-3.3-1.929-7.083-3.3-10.387-5.259-.582,3.145-4.044.238-6-.978-1.348-.82-4.837-3.013-2.749-5"/><path class="a" d="M243.305,210.947c.291-1.374,1.243-1.48,2.379-2.22,1.745-1.083.714-3.594,2.564-4.6,3.965-2.22,6.423-7.4,9.515-10.466,3.383-3.331,7.771-6.5,12.819-6.423,1.242.026,5.207.5,5.471,1.718.212,1.136-1.348,2.722.317,3.224,2.908.846,6.608.529,9.807.529,1.929,0,2.378,2.7,4.863,1.057,1.982-1.321,2.59-1.929,4.916-1.268,3.039.845,6.951,1.559,6.158,4.942-.872,3.78-1.744,7.612,4.282,7.322,5.577-.291,3.04,3.991,2.775,6.792-.106,1.137,2.432,4.309.767,4.943-3.965,1.559-7.507,1.877-10.863.687-1.4-.5-5.1,1.242-6.9,1.348-2.7.132-5.524.185-8.167.132-4.07-.1-6.475-3.33-10.625-1.427-3.225,1.506-7.9,4.044-11.339,2.881-2.987-1.031-4.255-3.251-8.246-3.04-6.767.37-5.9-3.938-10.494-6.132"/><path class="e" d="M771.633,664.608c-6.528,2.246-9.356,8.326-17.048,8.484,3.86.74,2.987,3.568,4.6,5.974,1.111,1.691,4.916,4.07,6.608,5.154,4.494,2.854,3.066-10.044,3.013-10.335-.37-3.542.185-3.938,3.066-5.973C773.113,667.039,774.567,663.63,771.633,664.608Zm3.939,2.009c-1.058,2.537-2.882.449-2.406,3.594.132,3.568,1.295,7.295,5.683,8.167A16.051,16.051,0,0,0,775.572,666.617Z"/><path class="e" d="M545.992,737.9c-2.563.581,1.216,4.916,4.732.846a10.6,10.6,0,0,0-4.732-.846"/><path class="g" d="M435.7,599.429a12.173,12.173,0,0,0,.238,8.7c2.96-2.035,2.934-7.084-.238-8.7"/><path class="g" d="M440.348,600.962c.5,1.189,1.137,2.352,1.533,3.6a3.683,3.683,0,0,0-1.533-3.6"/><path class="g" d="M451.819,614.257a5.942,5.942,0,0,0-1.692-3.568,5.084,5.084,0,0,0,1.692,3.568"/><path class="g" d="M463.158,629.8c-1.4,1.19-1.639,2.987.581,3.41-.185-1.137-.37-2.273-.581-3.41"/><path class="g" d="M469.766,570.963c-1.375,1.057-1.375,2.088.026,3.066,1.348-1.057,1.322-2.088-.026-3.066"/><path class="g" d="M469.633,566.523c-.66,1.215.423,1.718,1.613,1.718a12.326,12.326,0,0,0-1.613-1.718"/><path class="g" d="M516.416,521.167l1.85.159a2.965,2.965,0,0,0-1.982-3.066,11.905,11.905,0,0,0,.132,2.907"/><path class="g" d="M521.835,526.268a2.441,2.441,0,0,0,.608,3.41,3.03,3.03,0,0,0-.608-3.41"/><path class="g" d="M416.745,386.29c.925,2.009,5.921,1.93,7.744.449,2.247-1.8-1-6.634-.184-8.986.475-1.295,1.77-2.194,2.035-3.568.4-2.141-1.375-3.515-.4-5.789.608-1.453,4.282-6.343,5.366-6.184,3.2.555,6.237,1.8,9.7,1.136,1.639-.291,3.409-1.9,5-1.877,1.613.027,2.062,1.428,3.674-.422,1.586-1.8-.37-5.26,2.908-5.974,2.378-.5,10.783,1.031,7-4.255,3.357-.159,13.136-5.339,12.052,1,1.9-.423,2.855-2.722,4.89-2.167.925.238,3.515,4.017,4.15,4.784,1.559,1.877-1.507,4.705-2.326,6.581-1.163,2.643.634,4.7,2.59,6.264,2.749,2.194,7.85-2.194,11.207-1.3,2.035.555,3.991.555,2.458,3.04-1.454,2.4,1.85,5.841,1.982,8.061.106,1.877-1.56,3.727-1.56,5.736.027,2.643-2.854,3.991-3.039,6.237-.106,1.058,1.982,1.692,2.035,3.066a11.479,11.479,0,0,1-1.374,6.529c-3.119,5.339-5.683,8.4,1.057,10.652,3.489-4.044,11.339-7.031,12.37-12.291,3.013,1.745,3.965-2.987,6.476-3.013,1.717-.026,3.62,2.96,5.1,3.647,1.163.529,3.992.741,4.6,1.851,1.877,3.541,5.419-1.639,8.352-1.11,1.613.264,3.014-5.5,5.683-5.815-3.885-4.388,9.568-1.533,11.022-1.163,8.114,2.061,9.568,12.422,16.837,16.017,6,2.987,1.3,13.506,1.717,18.766.239,3.171,3.2,4.837,4.864,7.321,2.7,4.044,4.2,4.018,9.039,5.789-4.758,2.616,1.454,4.413,3.225,5.814,2.035,1.613-3.436,8.352-.264,7.824-1.084,1.691-3.252,3.33-2.221,5.26.608,1.083,2.036,1.559,1.692,3.039-.846,4.071.529,8.088-4.282,10.6-3.224,1.692-5.26,5.207-7.215,1.427-2.062-3.911-9.384-.053-12.873-1-2.431-.661-4.915.132-7.4.423-2.67.343-3.753-1.11-6.053-1.269-3.2-.238-7.295,1.057-10.334,2.088-4.811,1.612-5.656,6.5-8.326,9.806-1.242,1.533-4.229,2.775-4.176,4.705.053,2.061-2.855,1.295-4.282,1.242,1.137,3.489,1.375,7.242,2.458,10.784.925,2.934.343,6.872,3.357,8.881,3.357,2.22,2.246,4.731,2.22,8.088-.027,4.123,4.678,7.48,3.568,11.656.159-2.088-1.691-3.225-2.564-4.89-1.3-2.511-.766-5.683-4.519-6.714,0,1.031-.053,2.036-.106,3.066-.846-2.246-9.3-3.33-3.991-6.317a1.784,1.784,0,0,1-2.749-1.189c-.37,3.674-4.678-2.009-5.366-3.753-.343,3.251-2.431-3.3-5.973-1.9-1.744.661-3.542,1.929-5.5,1.559-2.406-.423-5.1-1.612-7.692-1.057-5.022,1.084-1.824-3.462-1.876-6.158-.053-1.586.052-3.2-.053-4.784-.106-2.168,1.85-3.859,1.586-5.895-2.247,1.481-7.692.106-8.247-2.22.449,4.679-15.092.555-11.233,7.824,1.93,3.621.264,5.92-.925,9.7-1.242,4.018,1.744,7.771.5,11.815-.476,1.585-1.929,2.8-2.987,4.149-1.268,1.665-.74,3.674-2.167,5.286-2.7,3.093-3.542,7.8-4.757,11.392-1.481,4.361-2.485,7.533-4.943,11.55-.846,1.428.317,5.366-2.722,4.969,3.119,3.727-1.084,10.626.845,15.119.926,2.141,2.379,3.568,1.058,5.762-1.507,2.458,3.489,3.013,4.969,2.326,5.259-2.405,8.378-2.458,8.8,3.727.159,2.035,2.538,16.677,6.132,11.946,1.771,4.15,1.85,8.775,3.145,13.057,1.137,3.859,3.04,7.9,2.855,12-3.119-.5-3.04-12.925-6.581-10.784-2.564,1.533.819,6.4,1.718,7.639a22.381,22.381,0,0,0,3.779,3.806c1.163,1,2.96.634,4.1,1.638,2.643,2.326,3.039,4.732,7.586,4.864,3.357.079,7.162-1.11,9.99.9,3.119,2.221,3.569,6.264,6.582,8.617,3.171,2.484,5.259,3.7,3.356,7.612-.871,1.824-2.405,5.471-4.942,5.947-1.956.37-2.167-2.432-3.621-2.96-3.78-1.375-6.291,4.731-8.749,4.731-4.784-.027-3.356-4.229-1.559-6.582,1.982-2.537-1.137-4.863-3.2-5.312-2.934-.661-1.533-4.441-5.286-4.89-3.463-.423-5.472-.555-7.56-3.145-2.933-3.674-2.167,2.643-3.621,4.308-.026-4.837-13.268-9.383-7.585-14.51-4.679,2.431-2.485-3.886-4.652-5.1.079,2.485-2.22,1.956-3.145.423-1.19-1.929-.741-4.916-2.538-6.528-1.189-1.084-3.779.317-3.938-1.454-.132-1.612.291-2.194-.714-3.542-1.48-2.008-1.3-1.876-3.647-2.273-1.48-.238-1.084-2.431-1.507-3.356-.66-1.481-1.4-3.754-3.806-3.225-2.59.555-1.639,2.643-2.564,4.255-6.317-1.163-4.546-9.7-3.594-13.823,1.929-8.273,4.361-16.7,6.845-24.924,1.084-3.172,4.414-7.4,4.679-10.546.29-3.674,1.929-3.886,3.806-7.189,2.405-4.124,15.647-15.2,11.947-19.771-1.56-1.929-2.538-7.189-2.934-9.568-.635-3.621-2.009-4.863-3.727-7.9-.978-1.771-3.119-6.713-2.538-8.643,1.375-4.651,1.481-8.035-.211-12.5-2.8-7.269-10.466-11.656-15.118-17.868-2.036-2.749-4.018-5.418-4.124-8.933,0-1.983,1.3-6.555,4.177-3.939-.37-2.431,2.775-1.9,3.674-3.594,1.268-2.4.317-8.009.264-10.6-.132-4.255,3.33-2.062,5.365-4.467,1.295-1.533,1.824-4.837.265-6.079a11.445,11.445,0,0,1-2.829,3.595c-2.748-3.569-3.092-7.745-3.911-11.947-.5-2.7-4.626-5.339-6.449-7.427-2.829-3.225-6.688-6.634-8.961-10.123-1.242-1.956-.29-3.78-.713-5.894-.4-1.877-2.485-3.384-1.718-5.551-4.123,1.031-5.26-3.621-5.736-6.132"/></svg>