<svg xmlns="http://www.w3.org/2000/svg" viewBox="0 0 16 16"><defs><style>.a{fill:none;}.b{fill:#ee283b;}</style></defs><title>envelope</title><rect class="a" width="16" height="16"/><path class="b" d="M8,10a2,2,0,0,1-1-.375,7.429,7.429,0,0,1-.969-.687l-.312-.219Q1.875,5.907.5,4.844L.281,4.688A.714.714,0,0,1,0,4.094V3.5A1.443,1.443,0,0,1,.438,2.438,1.445,1.445,0,0,1,1.5,2h13A1.494,1.494,0,0,1,16,3.5v.594a.714.714,0,0,1-.281.594l-.156.125q-1.344,1.062-5.282,3.906l-.312.219A7.429,7.429,0,0,1,9,9.625,2,2,0,0,1,8,10Zm7.688-4.031q-1.125.874-4.813,3.531l-.312.25a8.726,8.726,0,0,1-1.188.813A2.782,2.782,0,0,1,8,11a2.927,2.927,0,0,1-1.375-.406,12.611,12.611,0,0,1-1.187-.813L5.125,9.5Q1.344,6.751.313,5.969a.2.2,0,0,0-.2-.016A.172.172,0,0,0,0,6.125V12.5a1.447,1.447,0,0,0,.438,1.063A1.448,1.448,0,0,0,1.5,14h13A1.492,1.492,0,0,0,16,12.5V6.125a.2.2,0,0,0-.109-.187A.153.153,0,0,0,15.688,5.969Z"/></svg>