<svg xmlns="http://www.w3.org/2000/svg" viewBox="0 0 946 520">
  <defs>
    <style>
      .a {
        fill: none;
      }
      g {
        fill: #ee283b;
        transition: opacity 2s;
      }
    </style>
  </defs>
  <title>Hatchery Pattern Strokes</title>
  <rect class="a" width="946" height="520"/>
  <g>
    <path d="M367.482,71.924l.146-.305L347.347,27.8,240.613,253.048h40.509ZM242.889,251.608,347.332,31.2l18.7,40.413-85.824,180Z"/>
    <path d="M413.993,253.028l40.51-.312-46.129-94.864H366.452L349.586,193.1H384.85Zm-46.634-93.735h40.115l44.737,92-37.321.285-29.139-59.925h-33.88Z"/>
  </g>
  <g>
    <path d="M533.955,266.931,447.594,448.056l-.145.3,20.28,43.818L574.464,266.931ZM449.04,448.37l85.824-180h37.324L467.745,488.783Z"/>
    <path d="M448.624,362.127l16.867-35.243H430.226l-29.143-59.933-40.509.312L406.7,362.127ZM400.186,268.4l29.14,59.925h33.88l-15.489,32.363H407.6l-44.737-92Z"/>
  </g>
  <g>
    <path d="M294.033,266.931,207.672,448.056l-.145.3,20.281,43.818L334.542,266.931ZM209.118,448.37l85.824-180h37.325L227.823,488.783Z"/>
    <path d="M208.7,362.127l16.866-35.243H190.305l-29.143-59.933-40.51.312,46.129,94.864ZM160.265,268.4,189.4,328.324h33.88L207.8,360.687H167.682l-44.737-92Z"/>
  </g>
  <g>
    <path d="M107.426,293.849l-.014.029-.014-.029L1.152,518.067.665,519.1H41.173l65.766-137.931v.057l20.622-43.251.146-.305Zm.091,82.815v-.057L40.265,517.655H2.94l104-219.472v.056l.458-.967.12.258v-.057l18.6,40.184Z"/>
    <path d="M126.531,423.9l-16.867,35.244h35.265l29.143,59.933,40.51-.313L168.453,423.9Zm48.438,93.729L145.83,457.7H111.949l15.489-32.362h40.114l44.737,92Z"/>
  </g>
  <g>
    <path d="M367.628,337.666l-20.281-43.818L240.613,519.1h40.509l86.36-181.124ZM280.213,517.655H242.889L347.332,297.244l18.7,40.413Z"/>
    <path d="M366.452,423.9l-16.866,35.244H384.85l29.143,59.933,40.51-.313L408.374,423.9Zm48.438,93.729L385.751,457.7h-33.88l15.488-32.362h40.115l44.737,92Z"/>
  </g>
  <g>
    <path d="M607.4,71.924l.145-.305L587.269,27.8,480.534,253.048h40.509ZM482.81,251.608,587.253,31.2l18.7,40.413-85.824,180Z"/>
    <path d="M653.914,253.028l40.511-.312L648.3,157.852H606.374L589.507,193.1h35.265Zm-46.633-93.735H647.4l44.736,92-37.319.285-29.139-59.925H591.792Z"/>
  </g>
  <g>
    <path d="M847.324,71.924l.146-.305L827.189,27.8,720.941,252.02l-.486,1.028h40.509ZM722.73,251.608,827.175,31.2l18.7,40.413-85.823,180Z"/>
    <path d="M893.835,253.028l40.511-.312-46.129-94.864H846.294L829.427,193.1h35.265ZM847.2,159.293h40.115l44.736,92-37.319.285-29.14-59.925h-33.88Z"/>
  </g>
  <g>
    <path d="M840.416,1.216l46.13,94.864h41.922l16.867-35.244H910.069L880.927.9ZM943.048,62.277,927.56,94.64H887.446l-44.736-92,37.319-.286,29.139,59.925Z"/>
  </g>
  <g>
    <path d="M928.468,362.127l16.867-35.243H910.069l-29.142-59.933-40.511.312,46.13,94.864ZM880.029,268.4l29.139,59.925h33.88L927.56,360.687H887.446l-44.736-92Z"/>
  </g>
  <g>
    <path d="M814.385,266.931H773.877L687.516,448.056l-.145.3,20.281,43.818L813.9,267.96ZM707.666,488.783l-18.7-40.413,85.823-180H812.11Z"/>
    <path d="M688.547,362.127l16.866-35.243H670.148l-29.142-59.933-40.51.312,46.128,94.864ZM640.108,268.4l29.139,59.925h33.881l-15.489,32.363H647.525l-44.737-92Z"/>
  </g>
  <g>
    <path d="M607.549,337.666l-20.28-43.818L480.534,519.1h40.509L607.4,337.971ZM520.134,517.655H482.81L587.253,297.244l18.7,40.413Z"/>
    <path d="M606.374,423.9l-16.867,35.244h35.265l29.142,59.933,40.511-.313L648.3,423.9Zm48.438,93.729L625.673,457.7H591.792l15.489-32.362H647.4l44.736,92Z"/>
  </g>
  <g>
    <path d="M847.47,337.666l-20.281-43.818L720.941,518.067l-.486,1.028h40.509l86.36-181.124ZM760.056,517.655H722.73L827.175,297.244l18.7,40.413Z"/>
    <path d="M846.294,423.9l-16.867,35.244h35.265l29.143,59.933,40.511-.313L888.217,423.9Zm48.439,93.729L865.593,457.7h-33.88L847.2,425.34h40.115l44.736,92Z"/>
  </g>
</svg>
