<svg xmlns="http://www.w3.org/2000/svg" viewBox="0 0 224 24"><defs><style>.a{fill:#ee283b;}.b{fill:#fff;}</style></defs><title>logo</title><polygon class="a" points="41.662 0.666 30.606 24 34.681 24 43.704 5.076 41.662 0.666"/><polygon class="a" points="52.764 23.966 48.007 14.182 43.711 14.182 42.017 17.722 45.638 17.722 48.689 23.997 52.764 23.966"/><path class="b" d="M97.171,20.278a8.278,8.278,0,1,1,4.7-15.087l1.61-3.4a12,12,0,1,0,0,20.412l-1.61-3.4A8.236,8.236,0,0,1,97.171,20.278Z"/><path class="b" d="M193.833,24l-4.587-9.619A8.123,8.123,0,0,0,189.049,0L187.51,3.216a4.559,4.559,0,0,1-3.932,8.217l-1.539,3.216a8.085,8.085,0,0,0,3.326.717c.127,0,.25-.013.375-.019L189.865,24Z"/><polygon class="b" points="182.039 0 178.626 0 174.951 0 174.951 3.54 174.951 24 178.626 24 178.626 3.54 180.345 3.54 182.039 0"/><polygon class="b" points="132.499 0 132.499 10.371 124.349 10.371 122.655 13.911 132.499 13.911 132.499 24 136.174 24 136.174 0 132.499 0"/><rect class="b" x="115.536" width="3.675" height="24"/><polygon class="b" points="16.963 0 16.963 10.371 8.813 10.371 7.119 13.911 16.963 13.911 16.963 24 20.638 24 20.638 0 16.963 0"/><rect class="b" width="3.675" height="24"/><polygon class="b" points="159.557 10.371 152.485 10.371 152.485 3.54 162.455 3.54 164.149 0 152.485 0 148.81 0 148.81 3.54 148.81 10.371 148.81 13.167 148.81 13.911 157.863 13.911 159.557 10.371"/><polygon class="b" points="151.186 23.907 162.455 23.907 164.149 20.367 152.881 20.367 151.186 23.907"/><polygon class="b" points="77.288 0 69.346 0 65.671 0 59.422 0 57.728 3.54 65.671 3.54 65.671 24 69.346 24 69.346 3.54 75.594 3.54 77.288 0"/><polygon class="b" points="212.516 11.583 206.993 0 203.026 0 203.025 0 208.549 11.583 212.516 11.583"/><polygon class="b" points="224 0 220.033 0 208.074 24 212.041 24 224 0 224 0"/></svg>