<svg xmlns="http://www.w3.org/2000/svg" viewBox="0 0 16 16"><defs><style>.a{fill:none;}.b{fill:#ee283b;}</style></defs><title>marker</title><rect class="a" width="16" height="16"/><path class="b" d="M5.281,12.687Q3.72,10.437,3.219,9.656a8.834,8.834,0,0,1-.969-1.89A5.678,5.678,0,0,1,2,6a5.79,5.79,0,0,1,.813-3A6.1,6.1,0,0,1,5,.813,5.79,5.79,0,0,1,8,0a5.79,5.79,0,0,1,3,.813A6.123,6.123,0,0,1,13.188,3,5.8,5.8,0,0,1,14,6a5.708,5.708,0,0,1-.25,1.766,8.788,8.788,0,0,1-.969,1.89q-.5.781-2.062,3.031l-2.094,3a.781.781,0,0,1-1.25,0Q6.562,14.5,5.281,12.687Z"/></svg>